<svg width="305" height="239" fill="none" xmlns="http://www.w3.org/2000/svg">
  <path
    d="m72.005 61.332.864 1.038-1.671.46-1.384.635-3.401.461-3.056.75-1.383 1.613 1.095 1.557.807 1.844-1.153 1.557.461 1.44-.519 1.326-2.998-.115 1.788 2.421-1.788.98-.807 2.19.635 2.249-1.038 1.037-1.21-.346-2.307.52-.115.98H52.46l-1.326 2.132.462 3.113-3.805 1.556-2.249-.346-.519.807-1.96-.461-3.055.576-5.535-1.902 2.249-3.343-.634-2.364-2.48-.634-.691-2.363-1.557-2.94.923-2.017-1.441-.577.288-2.709.346-4.611 3.401 1.44 2.248-.518.231-1.672 2.306-.518 1.499-1.153-.115-2.94 2.42-.75.174-1.268 1.672.98.922.116h1.73l2.478.807 1.038.403 1.96-1.153 1.211.692.519-1.672 1.845.058.346-.519-.116-1.498.98-1.269 1.903.807-.058 1.153.98.173.519 3.113 1.556 1.21.865-.807 1.269-.346 1.44-1.671 2.191.288h3.114Zm67.796 56.894.346 2.651-1.211-.576.634 2.997-1.21-1.902-.461-1.902-.865-1.787-1.614-2.133-2.998-.173.519 1.557-.692 2.017-1.499-.749-.346.691-.98-.403-1.268-.346-.923-3.055-1.499-2.767.173-2.248-2.133-.98.519-1.326 1.73-1.383-2.652-1.96.692-2.536 2.824 1.614 1.557.173.692 2.594 3.113.518 2.94-.057 1.96.634-.922 3.113-1.384.23-.692 2.075 2.076 1.96.173-2.421h.864l2.537 5.88Zm76.387 64.848 1.268-1.383 2.652-2.076-.058 1.845-.058 2.363-1.556-.115-.634 1.268-1.614-1.902Zm-83.19-86.061 1.499 1.21.289 2.249-2.595.115-2.709-.231-1.845.577-3.171-1.441-.23-.692 1.498-2.767 1.499-.922 2.479.807 1.672.115 1.614.98Zm65.376 33.664-2.479 1.786-2.825-1.152-.577-3.171 1.269-1.671 3.343-1.038 1.903.058.922 1.441-1.153 1.614-.403 2.133Z"
    fill="#fff"
  />
  <path
    d="m211.864 17.466 5.188 2.594 3.459 3.343h4.381l1.499-1.383 3.978-1.096.75 3.286-.173 1.326 1.614 3.92.346 3.573-3.978-.634-1.672 1.268 2.71 3.113 2.248 4.323-1.441.058 1.095 1.902-3.171-2.19v2.075l-3.689 1.556 1.614 1.96-2.652-.173-2.075-1.153-.634 2.652-2.249 1.96-1.21 2.363-3.632 1.038-1.384 1.73-2.767 1.037.749-1.73-1.326-1.44 1.153-2.48-2.594-1.902-1.96 1.269-2.075 2.593-.75 2.364-2.882.173-.75 1.73 2.767 2.478 2.768.634.807 1.614 2.94 1.095 2.19-2.652 3.402 1.442 2.018.115 1.326 1.902-3.863 1.038-.577 2.017-2.19 1.845-.519 2.594 4.093 2.017 2.652 3.632 3.171 3.4 3.17 2.825.923 2.767-1.614 1.037 1.383 1.96 2.249 1.153.461 2.998.057 2.94-1.614.345-1.21 3.978-1.326 4.899-1.96 4.381-3.69 3.401-3.805 3.17-3.517.404-1.671 1.614-1.326-1.153-1.442 1.787-4.15 1.902-3.344.519-.404 3.92-1.787.23-1.268-2.709.519-1.383-4.497-1.211-1.384.634-3.401-.98-1.787-1.498.173-2.133-3.056-.692-1.787-1.383-2.363 1.959-3.056.462-2.536-.058-1.557.922-1.557.519 1.153 4.266-1.729-.116-.461-.864-.288-1.557-2.191 1.096-1.499-.692-2.594-1.384.461-3.055-2.133-.749-1.384-3.401-3.228.634-.404-4.381 2.422-3.112-.519-3.056-.75-2.824-1.556-.865-1.557-2.19-1.787.288-3.517-.576.692-1.557-2.075-2.305-1.845 1.556-2.825-.865-3.113 2.306-2.248 2.767-2.422.461-1.614-.98-1.672-.115-2.479-.807-1.499.922-1.498 2.767-.865-2.94-1.787.807-3.748-.403-3.747-.807-2.882-1.672-2.595-.692-1.441-1.787-1.902-.518-3.69-2.421-2.767-1.153-1.095.864-4.958-2.594-3.575-2.305-1.844-4.093 2.363.519-.346-1.902-1.73-1.903-.46-2.997-4.44-4.38-5.476-1.442-1.672-2.882-2.71-1.73-.864-1.037-1.038-2.075-.288-1.441-2.133-.865-.865.404-1.787-3.459.634-.807-.692-.864 2.364-1.73 1.845-.75 3.343.52.346-2.364 3.69-.403.576-1.499 3.978-1.96.116-.807-.98-2.133 1.671-.922-5.073-6.34 5.246-1.442 1.153-.807-.576-6.513 6.226 1.21.922-1.672-1.44-3.573 2.19-.346 1.095-2.421.98-.288 1.903 2.536 3.286 1.902 4.727 1.326 3.344 2.94.807 4.208 1.729 1.614 3.747.634 4.151.46 4.612 2.306 1.96.404 2.883 3.343 2.709 2.19 3.229-.114 6.514.864 3.69-.519 3.228.52 5.419 2.247h3.575l1.902 1.095 2.537-1.96 4.151-1.268 4.381-.115 2.825-1.268 1.153-1.96 1.383-1.268-1.095-1.21-1.672-1.384.288-2.363 1.845.345 3.402.75 1.844-1.96 3.69-1.383.749-2.421 1.442-1.038 3.92-.461 2.536.403-.461-1.268-4.151-2.536-2.997-1.153-1.442 1.326-3.17-.577-1.326.462-1.614-1.442-.173-3.631-.346-2.71 4.266 1.384 2.536-2.248-1.095-1.614-.115-3.747.749-1.152-1.441-1.96-2.133-.807.98-1.787 2.94-.634 3.574-.116 4.958 1.096 3.459 1.268 4.439 3.574 2.191 1.556 2.594 2.19 3.575 3.459 5.765 1.153Zm24.155 220.253-1.384.058-4.093-2.594 3.113-.749 1.615 1.153 1.037 1.095-.288 1.037Zm14.297-5.014.289.749-.058 1.095-2.364 2.767-2.882.807-.346-.404.403-1.268 1.615-2.248 3.343-1.498Zm-22.829-2.94 1.095.98 2.076-.289.691 1.557-3.862.749-2.248.519-1.788-.058 1.269-2.132h1.845l.922-1.326Zm16.315 0-.634 2.075-4.958 1.038-4.324-.462.115-1.383 2.652-.749 1.96 1.095 2.191-.288 2.998-1.326Zm-46.235-4.9 6.226.404.807-1.557 5.938 1.787 1.038 2.421 4.842.692 3.863 2.19-3.805 1.384-3.517-1.499-2.94.115-3.344-.288-2.998-.634-3.689-1.441-2.364-.346-1.383.461-5.881-1.556-.461-1.556-2.94-.289 2.421-3.516 3.92.231 2.537 1.441 1.384.288.346 1.268Zm85.264-2.075-1.845 2.536-.115-2.767.634-1.325.749-1.269.692 1.096-.115 1.729Zm-23.867-10.203-1.268 1.268-2.191-.691-.577-1.614 3.286-.173.75 1.21Zm10.607-1.326 1.038 2.825-2.652-1.556-2.709-.289-1.903.231-2.248-.115.865-2.018 4.035-.173 3.574 1.095Z"
    fill="#fff"
  />
  <path
    d="m304.046 209.417-.576 12.047-.923 12.105-2.652-3.055-3.228-.749-.865 1.037-4.151.116 1.614-2.998 2.134-1.037-.577-4.035-1.326-3.055-6.168-3.171-2.652-.288-4.785-3.459-1.038 1.845-1.268.288-.635-1.326.058-1.614-2.421-1.844 3.574-1.326 2.306.058-.23-.98h-4.785l-1.269-2.191-2.882-.691-1.326-1.845 4.381-.865 1.672-1.21 5.246 1.499.519 1.383.75 5.995 3.286 2.19 2.882-3.919 3.805-2.191h2.883l2.767 1.268 2.363 1.326 3.517.692Zm-51.366-14.872-2.594 3.689-2.479.692-3.113-.692-5.477.173-2.825.519-.461 2.824 2.882 3.286 1.787-1.672 6.111-1.268-.288 1.672-1.441-.519-1.441 2.19-2.941 1.441 2.941 4.727-.635 1.268 2.768 4.266-.173 2.421-1.787 1.095-1.211-1.326 1.729-2.997-3.286 1.441-.749-1.038.461-1.441-2.248-2.19.403-3.574-2.248 1.095.115 4.324-.115 5.303-2.133.518-1.326-1.037 1.095-3.401-.346-3.574-1.383-.058-.923-2.536 1.442-2.421.518-2.94 1.73-5.591.634-1.499 2.767-2.767 2.595 1.096 4.093.518 3.747-.173 3.228-2.651.577.807Zm11.299 1.095-.173 3.228-1.672-.403-.518 2.248 1.326 1.96-.923.461-1.268-2.364-.98-4.726.576-2.94 1.038-1.326.288 2.018 1.96.288.346 1.556Zm-62.262-3.286.577 2.479 2.248 2.133 2.133-.749 2.076.23 1.902-1.844 1.557-.346 3.113 1.037 2.652-.807 1.499-5.13 1.21-1.268.98-4.208h3.747l2.883.634-1.73 3.343 2.537 3.459-.519 1.729 3.69 3.401-3.863.461-1.037 2.537.115 3.343-3.171 2.536-.23 3.689-1.442 5.649-.403-1.326-3.805 1.672-1.211-2.248-2.306-.23-1.614-1.211-3.92 1.383-1.096-1.844-2.19.23-2.652-.403-.346-4.957-1.614-1.038-1.557-3.17-.461-3.228.346-3.459 1.902-2.479Zm-13.144 29.11-3.574.058-2.594-3.055-4.093-3.055-1.326-2.248-2.364-2.998-1.557-2.767-2.421-5.188-2.825-3.112-.98-3.171-1.268-2.882-2.998-2.306-1.787-3.17-2.537-2.075-3.574-4.093-.346-1.902 2.075.173 5.131.692 2.998 3.631 2.652 2.537 1.845 1.498 3.171 3.978 3.343.057 2.768 2.537 1.96 3.112 2.479 1.73-1.326 2.997 1.902 1.268 1.153.115.519 2.594 1.095 2.018 2.364.346 1.499 2.363-.98 4.612-.404 5.706ZM97.717 88.078l-1.615 1.73-.518 3.458 3.343 1.384 3.344 1.787 4.497 2.075 4.439.519 2.19 1.844 2.479.346 3.978.865 2.652-.058.058-1.441-.865-2.363-.115-1.557 1.787-.807.865 2.94.23.692 3.171 1.441 1.845-.577 2.709.231 2.595-.115-.289-2.248-1.499-1.21 2.422-.462 2.248-2.767 3.113-2.306 2.825.865 1.845-1.556 2.075 2.305-.692 1.557 3.517.576.577 1.384-.98.691.807 2.248-2.422-.634-3.574 2.537.519 2.132-1.153 3.113.173 1.787-.923 3.055-2.651-.865.518 3.863-.576 1.268.576 1.556-1.441.865-2.536-5.88h-.865l-.173 2.421-2.076-1.96.692-2.075 1.384-.23.922-3.113-1.96-.634-2.94.057-3.113-.518-.692-2.594-1.556-.173-2.825-1.614-.692 2.536 2.652 1.96-1.73 1.383-.519 1.326 2.133.98-.172 2.248 1.498 2.767.923 3.055-.288 1.383-2.191-.057-3.805.749.519 2.767-1.384 2.19-4.324 2.537-3.055 4.323-2.191 2.363-2.882 2.421.173 1.672-1.499.922-2.767 1.326-1.499.173-.692 2.824 1.095 4.842.404 3.056-1.096 3.516.404 6.283-1.672.173-1.326 2.824 1.096 1.268-2.94 1.038-.98 2.479-1.269 1.095-3.228-3.459-1.787-5.188-1.442-3.746-1.268-1.73-1.96-3.574-1.153-4.611-.807-2.306-3.401-5.072-2.018-7.206-1.5-4.726-.46-4.496-.98-3.459-4.44 2.248-2.306-.461-4.67-4.496 1.384-1.326-1.095-1.441-4.093-3.17 1.845-2.479h6.975l-1.037-3.17-2.018-1.845-.807-2.882-2.306-1.614 2.825-3.92 3.747.288 2.594-3.862 1.269-3.747 2.248-3.746-.577-2.652 2.191-2.133-2.94-1.787-1.672-2.536-1.902-3.228 1.153-1.614 4.9.922 3.286-.576 2.19-3.113 4.44 4.381.46 2.998 1.73 1.902.346 1.902-2.363-.519 1.844 4.093 3.575 2.305 4.958 2.594Zm161.938-14.641.923 1.268-.75 2.248-1.787-1.21-1.21.865.057 2.132-2.479-1.037-.691-1.73.749-2.248 1.96.461.577-1.556 2.651.807Z"
    fill="#fff"
  />
  <path
    d="m273.837 62.37.346 2.94 1.442 1.844-.346 2.594-3.113 1.73-5.304.23-2.537 4.265-2.709-1.44-1.384-2.767-4.958.806-2.94 1.73-3.574.115 4.266 2.71.461 6.282-1.441 1.557-2.076-1.441-.519-3.344-2.363-1.037-2.306-2.537 2.479-1.152.634-2.364 2.248-1.902 1.153-2.536 5.592-1.096 3.632.75v-6.571l2.94 1.787 2.595-3.69.98-1.44-.577-4.497-2.94-4.15-.115-2.306 2.767-.692 4.727 5.13 1.615 2.94-.75 3.747 2.075 3.805Zm-6.86-25.824 2.594.749 1.038-1.499 3.459 4.093-3.69.98-.23 3.631-6.284-2.478.922 3.977-3.286.058-2.709-3.632-.346-2.824 2.998-.173-2.537-5.073-1.038-2.824 6.054 3.804 3.055 1.21ZM82.094 43.232l-.116.807L78.001 46l-.577 1.499-3.69.403-.346 2.364-3.343-.52-1.845.75-2.364 1.73.692.864-.634.807-5.534.577-4.094-1.21-3.17.287-.346-2.075 3.459.577.807-1.096 2.364.346 3.055-2.651-4.15-1.96-1.846.922-2.651-1.383 1.729-2.364-.98-.346.173-1.614 1.787-.518 5.304 1.268-.288-2.133 1.44-.807 4.728 1.556.922-.403 4.958.115 4.555.346 1.96 1.326 2.018.576ZM191.225 147.22l1.038 2.479.057 4.438-5.188 2.882 1.614 2.191-3.401.288-2.652 1.499-2.767-.519-1.499-1.96-2.018-3.804-1.211-4.496 1.788-3.056 4.093-.691 3.055.519 2.883 1.441 1.153-2.537 3.055 1.326Zm36.377-87.098v-.346l1.442.115.345-1.614 2.076-.23 1.153-.231v-.865l4.785 4.324 1.902 2.42 1.96 4.266-.288 2.017-2.479.692-1.787 1.557-2.652.288-1.211-2.018-.634-2.766-3.055-3.805 1.96-.634-3.517-3.17Z"
    fill="#fff"
  />
  <path
    d="m191.225 147.22-3.055-1.326-1.153 2.537-2.883-1.442.865-1.671-.231-3.113-3.055-3.228-.75-3.689-2.882-2.997-2.479-.231-.461 1.268-1.845.115-1.096-.634-3.055 2.191-.577-3.344.231-3.862-2.191-.173-.519-2.248-1.556-1.152.461-1.326 2.364-2.421.461.864 1.729.116-1.153-4.266 1.557-.519 2.306 2.94 2.018 3.343h3.92l1.73 3.228-1.903.98-.692 1.326 4.209 2.248 3.286 4.381 2.536 3.228 2.825 2.594 1.153 2.594-.115 3.689Zm-82.958 29.629-2.768.864-1.671-2.94-.807-5.303 1.153-5.995 2.363 2.018 1.614 2.594 1.788 3.862-.346 3.862-1.326 1.038Z"
    fill="#fff"
  />
  <path
    d="m167.358 120.474-2.364 2.421-.461 1.326-1.73.864-1.614 1.614-2.248.173-.865 3.977-1.268.692 2.018 3.228 2.363 2.709 1.672 2.479-.807 3.17-1.038.692 1.038 1.845 2.479 2.94.576 2.075.116 1.729 1.556 3.401-1.499 3.458-1.268 3.805-.519-2.767.75-2.824-1.269-2.191-.115-4.035-1.499-1.96-1.556-4.381-1.153-4.669-1.788-3.112-1.844 1.902-3.344 2.594-1.902-.289-2.076-.864.519-4.612-1.153-3.458-3.055-4.266.172-1.326-1.96-.518-2.652-2.998-.634-2.997 1.211.576-.346-2.651 1.441-.865-.576-1.556.576-1.268-.519-3.863 2.652.865.923-3.055-.173-1.787 1.153-3.113-.519-2.132 3.574-2.537 2.422.634-.808-2.248.981-.691-.577-1.384 1.787-.288 1.557 2.19 1.556.865.75 2.825.519 3.055-2.422 3.112.404 4.381 3.228-.634 1.384 3.401 2.133.749-.461 3.055 2.594 1.384 1.499.692 2.191-1.096.288 1.557Zm9.166 56.317.807.346 2.018 2.248 1.441 2.478.346 2.479-.288 1.672.346 1.268.288 2.19 1.211 1.038 1.326 3.286v1.21l-2.306.288-3.171-2.767-3.92-2.939-.462-1.903-1.96-2.478-.576-3.055-1.268-2.018.23-2.709-.807-1.556.519-.634 2.767 1.614.346 1.902 2.133-.461.98-1.499Zm51.77 7.724-2.883-.634h-3.747l-.98 4.208-1.21 1.268-1.499 5.13-2.652.807-3.113-1.037-1.557.346-1.902 1.844-2.076-.23-2.133.749-2.248-2.133-.577-2.479 2.422 1.269 2.479-.692.576-3.113 1.384-.692 3.92-.807 2.191-2.939 1.498-2.306 1.615 1.902.634-1.268 1.556.115.058-2.363.058-1.845 2.363-2.536 1.499-2.882 1.326-.058 1.787 1.903.231 1.614 2.191 1.037 2.767 1.095-.115 1.441-2.191.173.634 1.845-2.306 1.268Zm-106.71-87.848.115 1.557.865 2.363-.058 1.441-2.652.058-3.978-.865-2.478-.346-2.191-1.844-4.439-.52-4.497-2.074-3.344-1.787-3.343-1.384.519-3.458 1.614-1.73 1.095-.864 2.767 1.153 3.69 2.42 1.902.52 1.442 1.786 2.594.692 2.882 1.672 3.748.807 3.747.403ZM82.728 68.422l-2.19 3.113-3.287.576-4.9-.922-1.153 1.614 1.902 3.228 1.672 2.536 2.94 1.787-2.19 2.133.576 2.652-2.248 3.746-1.268 3.747-2.595 3.862-3.747-.288-2.825 3.92 2.306 1.614.807 2.882 2.018 1.844 1.038 3.171h-6.976l-1.845 2.479-2.421-.923-1.268-2.651-2.825-2.825-5.765.692-5.189.057-4.381.519.634-4.265 4.324-1.96-.519-1.672-1.557-.634-.576-3.228-3.286-1.614-1.614-2.248-1.845-1.96 5.534 1.902 3.056-.576 1.96.461.519-.807 2.248.346 3.805-1.556-.461-3.113 1.326-2.133h2.363l.116-.98 2.306-.519 1.21.346 1.038-1.037-.634-2.248.807-2.19 1.787-.98-1.787-2.422 2.998.115.519-1.325-.462-1.441 1.153-1.557-.807-1.844-1.095-1.557 1.384-1.614 3.055-.749 3.401-.461 1.384-.634 1.672-.461 2.71 1.729 1.671 2.882 5.477 1.441Zm172.316 100.241.518 2.479.346 2.075-.922 3.343-1.441-3.746-1.384 1.902 1.211 2.709-.807 1.729-3.978-2.133-1.096-2.709.865-1.729-2.191-1.787-.922 1.556-1.499-.173-2.306 2.076-.576-1.096 1.037-3.112 1.96-1.038 1.672-1.383 1.269 1.671 2.421-.98.403-1.671 2.306-.116-.461-2.824 2.825 1.729.404 1.845.346 1.383Zm-8.417-6.917-1.038 1.211-.807 2.363-.923 1.095-2.248-2.536.577-1.038.749-1.037.115-2.248 1.788-.231-.289 2.479 2.076-3.574v3.516Zm-17.468 3.574-4.093 3.516 1.383-2.594 2.191-2.306 1.729-2.536 1.326-3.689.923 3.055-2.018 2.018-1.441 2.536Zm10.088-9.511 2.076 1.153h2.017l.116 1.498-1.326 1.614-1.96 1.096-.289-1.73.058-1.902-.692-1.729Zm11.588-1.038 1.384 4.151-2.595-.98.173 1.268 1.038 2.248-1.499.864-.346-2.651-1.037-.173-.692-2.248 1.902.288-.173-1.383-2.306-2.825 3.113.058 1.038 1.383Zm-13.259-3.343-.519 3.228-1.557-1.845-2.018-2.824 2.768.115 1.326 1.326Zm-3.748-20.117 2.191 1.095.807-.98.461.922-.23 1.557 1.499 2.651-.346 3.055-1.672 1.211-.058 2.997 1.153 2.94 1.73.403 1.383-.403 4.324 2.017-.058 2.018 1.211.922-.173 1.672-2.709-1.787-1.442-1.96-.692 1.384-2.306-2.249-2.882.577-1.73-.807-.057-1.557.922-.922-1.095-.864-.231 1.325-1.902-2.132-.75-1.614-.634-3.517 1.499 1.211-.634-5.822.461-3.343h1.96Zm-1.96-88.251.807.633-1.268-.23-.576 1.268-.173 1.21 1.614 2.652-1.096.807-.172.634-.519 1.095-1.672.634-.807.98.749 1.557-.173.403 1.499.634 2.537 1.614v.865l-1.153.23-2.076.231-.346 1.614-1.441-.115v.346l-1.845-.692-.057.692-.75.288-.403-.692-.98-.346-1.096-.576.058-1.614.519-.461-.577-.634-.23-2.018-.519-.576-1.96-.404-1.96-.98 1.21-2.363 2.249-1.96.634-2.652 2.075 1.153 2.652.173-1.614-1.96 3.69-1.556v-2.075l3.17 2.19Z"
    fill="#fff"
  />
  <path
    d="m184.134 146.989-3.056-.518-4.093.691-1.787 3.055 1.211 4.497-3.056-1.73-2.767.116.173-2.94h-2.825l.116 4.092-1.269 5.419-.807 3.286.404 2.651 2.133.115 1.556 3.401.75 3.171 1.96 2.132 1.96.404 1.787 1.96-.98 1.499-2.133.461-.346-1.902-2.767-1.614-.519.634-1.326-1.384-.692-1.844-1.844-2.076-1.672-1.787-.404 2.191-.749-2.075.23-2.306.692-3.516 1.268-3.805 1.499-3.458-1.556-3.401-.116-1.729-.576-2.076-2.479-2.939-1.038-1.845 1.038-.692.807-3.17-1.672-2.479-2.363-2.709-2.018-3.228 1.268-.692.865-3.977 2.248-.173 1.614-1.614 1.73-.864 1.556 1.152.519 2.248 2.191.173-.231 3.862.577 3.344 3.055-2.191 1.096.634 1.845-.115.461-1.268 2.479.231 2.882 2.997.75 3.689 3.055 3.228.231 3.113-.865 1.671ZM57.016 50.956l-.807 1.096-3.46-.577.347 2.075 3.17-.288 4.094 1.21 5.534-.576 1.787 3.459.865-.404 2.133.865.288 1.44 1.038 2.076h-3.113l-2.19-.288-1.442 1.672-1.268.345-.865.807-1.557-1.21-.519-3.113-.98-.173.058-1.153-1.902-.807-.98 1.269.115 1.498-.346.519-1.845-.058-.519 1.672-1.21-.692-1.96 1.153-1.038-.403.75-3.747-1.384-2.767-2.422-.865.346-1.614 2.537.173.865-2.017.288-2.364 3.747-.864-.115 1.73.75.979 1.21-.058ZM46.235 61.563l-.922-.116-1.672-.98-.173 1.269-2.421.749.115 2.94-1.499 1.153-2.306.518-.23 1.672-2.249.519-3.401-1.441-.98-3.055-2.306-.173-4.209-3.228-2.479-.404-3.804-1.902-2.249-.346-1.153.692-2.075-.115-1.73 2.132-2.536.692-1.096-2.594-.346-3.862-2.651-1.268.23-2.479-2.018-.23-.057-3.113 3.055.922 2.364-1.153-2.71-2.248-1.383-2.075-2.191.922.346 2.71L0 45.307l1.038-1.268 3.228-.75 2.248 1.038 2.768 2.883 1.499-.173 3.4-.058-.98-1.845 2.192-1.268 1.96-2.133 4.554 1.96 1.095 2.883 1.326.749 3.171-.173 1.21.692 2.48 3.804 4.093 2.536 2.421 1.73 3.632 1.787 4.44 1.614.46 2.248Zm204.312 172.986.058-1.095-.289-.749.462-.865 2.824-.807 2.306-.173 1.038-.461 1.211.461-1.269 1.038-3.516 1.614-2.825 1.037Zm-20.062-119.09-.807 3.055-2.306-3.17-.865-2.71 1.095-3.631 1.903-2.825 1.729 1.095-.058 2.249-.691 5.937Z"
    fill="#fff"
  />
  <path
    d="m54.537 43.52.98.346-1.73 2.364 2.652 1.383 1.845-.922 4.151 1.96-3.056 2.651-2.363-.346-1.21.058-.75-.98.115-1.73-3.747.865-.288 2.364-.865 2.017-2.537-.173-.346 1.614 2.422.865 1.383 2.767-.75 3.747-2.478-.807h-1.73l-.46-2.248-4.44-1.614-3.632-1.787-2.421-1.73-4.093-2.536-2.48-3.804-1.21-.692-3.17.173-1.327-.75-1.095-2.882-4.554-1.96-1.96 2.133-2.191 1.268.98 1.845-3.401.058-3.575-13.489 6.918-2.133.634.289 5.304 2.594 2.767 1.383 3.805 3.286 3.286-.52 4.958-.287 4.382 2.651.864 3.69 1.5.057 1.44 2.997 3.863.116 1.326 1.729h1.153l.519-2.652 3.113-2.536 1.499-.692Zm134.786 76.55-3.747 3.113-2.134 3.516-.345 2.594 3.055 3.862 3.747 4.842 3.286 2.306 2.364 2.94 2.306 6.859.231 6.514-2.479 2.421-3.517 2.421-2.421 3.055-3.805 3.459-1.326-2.364.692-2.536-2.537-2.075 2.652-1.499 3.401-.288-1.614-2.191 5.189-2.882-.058-4.438-1.038-2.479.115-3.689-1.153-2.594-2.824-2.594-2.537-3.228-3.286-4.381-4.208-2.248.691-1.326 1.903-.98-1.73-3.228h-3.92l-2.018-3.343-2.306-2.94 1.557-.922 2.537.058 3.055-.461 2.364-1.96 1.787 1.383 3.055.692-.173 2.133 1.787 1.498 3.402.98Zm59.379-107.273 7.898 6.34-5.131-1.152 2.133 5.188 5.535 3.689 1.729 2.536-3.747-2.19.057 2.824-2.709-3.055-2.191-3.516-3.228-3.862-1.384-2.767-3.689-4.727-4.612-3.516-3.921-4.842 1.096-1.614-2.537-1.614.75-.519 2.824 2.306 3.978 3.4 2.998 3.517 4.151 3.574Z"
    fill="#fff"
  />
</svg>