<svg width="194" height="168" fill="none" xmlns="http://www.w3.org/2000/svg">
  <path
    d="m82.901 145.642 2.195 1.305 1.956-.534 2.906-.711 1.66.237-2.668 4.505-1.957 1.245-2.372 3.082-.356-1.067-3.913 2.608-.475-.178-1.779-.118.297-3.201 1.186-2.49.355-3.319 1.186-1.719 1.78.355Zm29.947-102.785.711 2.964 2.372-1.423.831 1.6 1.364 1.483-.653 1.718.119 3.26.118 1.898.771.474.238 3.26-.712 1.956.474 2.549 3.203 2.015 1.897 1.779 1.898 1.66-.653.948 1.364 2.37.297 4.15 1.542-.83.889 1.6.949-.533-.415 4.031 1.72 2.312 1.126 1.423 1.661 3.082v3.082l-.593 2.194-1.068 2.311.415 3.26-1.482 3.379-1.245 1.779-2.254 3.378-.889 2.194-1.839 2.726-2.965 3.438-3.261 1.897-2.609 2.905-1.957 1.897-2.609 3.26-2.195 1.897-2.312 2.845-1.839 2.608-.474 1.245-2.55 1.304-3.617.119-3.736 1.6-2.253 1.423-2.847 1.66-1.6-1.72-1.543-.652 1.542-1.956-2.075.712-4.27 2.726-2.135-1.007-1.423-.593-1.66-.296-2.432-1.067-.77-2.372.889-2.845.237-1.956-.83-1.541-2.787-.415 1.897-1.897.534-2.786-2.787 2.608-3.143.712 2.669-2.075 1.482-2.193 2.076-1.897.948-2.786-4.032 3.201-2.55 1.304-2.55 3.023-1.779-1.541 1.008-2.016-.83-2.786-1.067-1.422.949-.889-3.143-2.312-2.254-.059-2.372-1.897-5.87.355-4.685 1.364-4.092 1.304-2.965-.237-4.15 1.956-3.144.83-1.364 2.015-1.779 1.541-2.787.119-2.135.296-2.49-.652-2.49.415-2.254.178-2.669 2.015-.89-.178-2.015 1.067-2.017 1.186-2.253-.119H3.855l-2.432-2.43L0 120.628l.89-2.193 1.72-.534.889-.83.355-1.363 1.364-2.668.415-2.252-.415-3.853.119-2.193.83-2.134-.534-2.49.178-1.126-1.008-1.541.415-2.964-1.126-3.023-.06-1.6L5.1 91.522l-.297-3.557 1.364 1.127.652 1.482.356-1.957-.949-3.023-.059-1.185-.474-1.126.77-2.194.89-.948.771-1.897.06-2.252 1.838-2.727-.238 2.904 1.839-2.608 2.905-1.304 1.898-1.6 2.787-1.423 1.542-.296.83.474 2.847-1.423 2.075-.415.652-.83.89-.355 1.838.118 3.677-1.126 2.075-1.719 1.186-2.015 2.313-1.897.415-1.541.415-2.075 2.906-3.26.83 3.32 1.542-.771-.89-1.779 1.364-1.837 1.305.83.89-2.905 2.075-1.897 1.067-1.482 1.72-.652.237-1.067 1.364.415.237-.948 1.542-.534 1.66-.533 2.195 1.778 1.541 2.253h2.076l2.075.355-.415-2.074 2.076-3.024 1.6-1.007-.355-.949 1.72-2.193 2.194-1.363 1.6.474 2.907-.711.178-1.956-2.313-1.245 1.838-.534 2.135.949 1.601 1.54 2.669.95 1.008-.356 1.957 1.185 2.075-1.126 1.186.355.89-.77 1.304 1.897-1.186 2.074-1.482 1.542-1.127.118.178 1.482-1.305 1.897-1.482 1.897.118 1.067 2.254 2.134 2.372 1.185 1.482 1.304 1.957 2.253h.949l1.542 1.008.296 1.185 2.906 1.245 2.431-1.304 1.068-2.016 1.008-1.719.771-2.074 1.541-3.023-.118-1.838.415-1.126-.059-2.134.83-2.905.771-.77-.356-1.245 1.067-2.016.89-2.074.237-1.127 1.364-1.422.771 1.897-.059 2.37.77.475-.059 1.6.949 1.897-.059 2.194-.356 1.363Zm31.547-31.535-1.779.296-.593 1.067-1.897.949-1.779.889h-1.839l-2.668-1.127-1.839-1.067.356-1.185 2.965.593 1.898-.297.593-1.837.534-.119.178 2.016 1.897-.238 1.068-1.304 1.956-1.363-.237-2.252 2.016-.06.653.593-.237 2.134-1.246 2.312Zm-37.833 13.87.949-12.448.593-12.388 5.693 2.608 6.107 2.193 2.195 1.956 1.779 1.897.355 2.252 5.456 2.372.652 2.015-3.083.415.533 2.549 2.787 2.49 1.779 4.03 1.957-.118-.355 1.66 2.549.651-1.067.712 3.38 1.6-.534 1.127-2.253.237-.712-.949-2.787-.474-3.32-.534-2.372-2.43-1.661-2.134-1.482-3.32-4.211-1.66-2.905 1.068-2.194 1.304.177 2.786-2.727 1.304-1.839-.652-3.439-.119Zm41.925-17.605-1.067 1.008-.534-2.252-.652-1.423-1.483-1.245-1.838-1.66L140.541.89l.949-.89 1.779 1.067 1.126.83 1.364.889 1.246 1.6 1.245 1.245.237 1.956Zm19.332 138.53-.475 1.541 3.321-1.541-.296 1.6-1.246 1.601-2.49 1.719-4.21 2.786-2.788 1.541-.355 1.778-2.372.059-3.736 1.423-2.787 2.43-4.863 3.794-3.736 1.66-2.372 1.067-2.728-.06-.889-1.244-3.025-.237.593-1.423 3.855-2.727 6.76-3.734 2.55-.712 3.321-1.422 4.151-1.956 3.38-1.956 3.558-2.786 1.838-.949 2.076-2.134 3.439-1.719-.474 1.601Zm17.197-18.08-.237 4.031 1.719-2.608.771 1.067-1.423 2.845 1.72 1.245 1.897.296 2.788-1.422 1.304.415-3.083 3.379-2.491 2.193-2.313-.06-1.66 1.127-.89 1.659-.948.653-2.728 2.074-3.499 2.549-3.558 1.541.296-1.007-.889-.534 4.092-3.082.533-2.134-2.253-1.482 1.067-1.364 3.143-1.304 2.491-2.963 1.482-2.431.356-2.549.475-.652-.534-1.6-.415-3.32.237-2.726 1.305-.297.533 2.134 1.898.949-1.186 3.378Z"
    fill="#fff"
  />
</svg>