<svg width="175" height="150" fill="none" xmlns="http://www.w3.org/2000/svg">
  <path
    d="m118.644 124.163.23.692.807-.346.692.98.75.403.346 1.326-.289 1.268.577 1.556 1.326.865.057.98-.98.519-.057 1.21-1.269 1.787-.518-.23-.116-.807-1.787-1.268-.403-1.73.057-2.536.288-1.095-.518-.577-.289-1.21 1.096-1.787Zm-10.031-21.443-.173.461.403 1.21-.115 1.499h-1.614l.634.807-.75 2.306-.518.634-2.537.058-1.384.864-2.421-.288-4.208-.98-.75-1.21-2.825.634-.288.691-1.787-.518-1.499-.116-1.326-.691.404-.865-.116-.634.807-.173 1.557.98.346-.98 2.537.173 2.017-.634 1.384.115.98.749.23-.634-.576-2.363.98-.461.922-1.672 2.191 1.211 1.499-1.499.98-.288 2.306 1.095 1.326-.173 1.384.692Zm-31.189-7.897-.23 2.42-.75.116-.23 2.017-2.537-1.671-1.442.288-2.017-1.672-1.384-1.44-1.268-.058-.462-1.268 2.249-.692 2.075.288 2.594-.75 1.788 1.557 1.614.865Zm38.337 21.443 1.095-.058-.634 1.614 1.557 1.441-.288 1.672-.635.173-.518.346-.923.864-.23 2.018-2.768-1.384-1.21-1.556-1.211-.807-1.441-1.383-.75-1.096-1.556-1.729.461-1.499 1.153.865.577-.807 1.325-.058 2.595.634 2.017-.057 1.384.807Zm33.783-29.744-2.248-.115-.462.346.865 1.153 1.153 2.305-2.363.173-.75.807.173 1.787-1.211-.346-2.479.173-.864-.865-.98.635-1.096-.52-2.248-.057-3.286-.865-2.825-.288-2.191.116-1.383.922-1.326.173-.288-1.614-1.096-1.614 1.614-.75-.23-1.383-.98-1.326-.346-1.556h2.709l2.768-1.326.288-1.96 2.075-1.153-.576-1.556 1.556-.576 2.652-1.326 3.056.864.518.865 1.384-.403 2.767.807.634 1.671-.403.922 2.191 2.306 1.21.634v.634l1.96.634.98.923-.922.75Z"
    fill="#fff"
  />
  <path
    d="m87.743 106.582.116.634-.404.865 1.326.691 1.499.116-.173 1.441-1.21.634-2.191-.461-.577 1.441-1.383.115-.52-.577-1.556 1.269-1.441.173-1.268-.807-1.038-1.557-1.384.577v-1.672l2.076-2.018-.116-.922 1.326.346.75-.634h2.421l.577-.749 3.17 1.095Zm14.586-12.855 1.441 1.153 2.133.288-.115.98 1.614.75.346-.922 1.96.403.403 1.153 2.133.173 1.499 1.787h-.865l-.403.634-.634.173-.116.807-.518.173-.058.346-.922.345-1.269-.057-.346.807-1.383-.692-1.326.173-2.306-1.095-.98.288-1.499 1.499-2.19-1.211-1.73-1.499-1.5-.864-.403-1.557-.576-1.037 1.96-.75.98-.922 2.018-.691.634-.692.749.403 1.269-.346Z"
    fill="#fff"
  />
  <path
    d="m98.985 84.332.807 1.787-.692.98 1.096 1.21.864 1.902-.115 1.268 1.384 2.248-1.269.346-.749-.403-.634.692-2.018.691-.98.922-1.96.75.576 1.037.404 1.557 1.499.864 1.73 1.499-.923 1.672-.98.461.576 2.363-.23.634-.98-.749-1.384-.115-2.018.634-2.536-.173-.346.98-1.557-.98-.807.173-3.17-1.095-.577.749h-2.421l.23-2.594 1.384-2.421-4.15-.692-1.385-.922.116-1.556-.577-.807.23-2.421-.633-3.747h1.672l.691-1.326.52-3.228-.52-1.21.462-.75 2.306-.173.576.75 1.787-1.73-.75-1.326-.23-1.96 2.133.462 1.672-.519.173 1.326 2.825.807.058 1.268 2.71-.692 1.498-.922 3.228 1.383 1.384 1.096Zm-4.497-6.456L93.105 80.7l-2.998-2.017-.52-1.442 3.921-1.152.98 1.787Z"
    fill="#fff"
  />
  <path
    d="m87.109 80.066-1.672.519-2.133-.461-1.21-1.96-.231-3.516.346-.98.75-1.038 2.305-.173.922-.98 2.076-.98v1.787l-.692 1.153.404.922 1.499.52-.577 1.325-.807-.346-1.787 2.479.807 1.729ZM133.46 64.56l.519.577-1.499 1.96 1.383 3.227-.922 1.096-2.191-.058-2.536-1.268-1.211-.404-2.191.577-.057-2.018-.865.461-1.903-1.21-.576-1.96 3.171-.98 3.228-.461 2.94.519 2.71-.058Zm-5.535-31.415.231 2.19 4.208 2.133-1.671 2.42 3.747 3.632-.98 2.767 2.825 2.421-.519 2.19 4.266 2.249-.519 1.672-1.96 1.96-4.612 4.265-4.612.288-4.382 1.21-4.093.75-1.845-1.845-2.709-1.095.058-3.343-1.73-2.998.922-1.96 1.903-2.017 5.073-3.574 1.499-.691-.519-1.384-3.747-1.499-1.038-1.268-1.037-4.9-4.151-2.132-3.459-1.557 1.268-.807 2.94 1.614 3.056-.115 2.709.75 1.96-1.384.634-2.306 3.402-1.037 3.344 1.21-.462 2.19ZM42.95 83.928l-2.019-.692-1.73.058.693-1.902-.52-1.845 2.307-.173 2.825 2.19-1.557 2.364Z"
    fill="#fff"
  />
  <path
    d="m52.115 67.385-2.94 3.746 2.71-.46h2.94l-.75 2.824-2.478 3.112 2.825.173.172.404 2.422 4.093 1.845.576 1.671 4.035.808 1.383 3.4.635-.345 2.305-1.384 1.038 1.096 1.844-2.537 1.845-3.747-.058-4.843 1.038-1.268-.75-1.903 1.672-2.594-.403-2.075 1.383-1.441-.692 4.208-3.746 2.537-.807-4.382-.577-.75-1.44 2.94-1.096-1.44-1.902.576-2.306 4.093.346.462-2.075-1.788-2.133-.057-.058-3.286-.634-.634-.922 1.037-1.556-.865-.98-1.498 1.671-.058-3.4-1.268-1.73 1.095-3.574 2.19-2.767 2.076.23 3.228-.287Zm86.072 63.637-1.845-.115-1.556-.346-3.575.923 2.307 2.075-1.442.634h-1.672l-1.787-1.902-.519.807.923 2.19 1.672 1.729-1.096.807 1.845 1.672 1.614 1.095.231 2.075-2.883-.98 1.038 1.903-1.902.345 1.441 3.286-2.018.058-2.652-1.614-1.383-2.94-.75-2.479-1.326-1.671-1.729-2.133-.289-1.038 1.269-1.787.057-1.21.98-.519-.057-.98 1.96-.288 1.038-.807 1.614.058.461-.635.577-.115 2.19.115 2.306-1.037 2.249 1.326 2.652-.346-.173-1.845 1.556.98-.634 2.306-.692.403Zm-23.291-18.618.865 1.441.98 1.037-.98 1.384-1.383-.807-2.018.057-2.594-.634-1.326.058-.577.807-1.153-.865-.461 1.499 1.556 1.729.75 1.096 1.441 1.383 1.211.807 1.21 1.556 2.768 1.384-.289.576-2.882-1.326-1.845-1.325-2.767-1.096-2.71-2.651.577-.288-1.441-1.557-.173-1.21-1.903-.577-.807 1.557-.922-1.211v-1.268l.057-.058 2.076.116.461-.577 1.038.577 1.153.057-.058-.98.98-.403.173-1.441 2.248-.98.923.461 2.306 1.556 2.479.692 1.037-.576Z"
    fill="#fff"
  />
  <path
    d="m123.371 103.354 1.729.98.289.98-1.672.749-1.096 2.421-1.498 2.479-2.249.691-1.845-.173-2.133.923-1.037.576-2.479-.692-2.306-1.556-.923-.461-.692-1.211-.461-.057.75-2.306-.634-.807h1.614l.115-1.499 1.557.98 1.095.346 2.364-.403.173-.75 1.095-.115 1.326-.519.346.231 1.326-.461.576-.865.923-.231 3.17 1.096.577-.346ZM42.95 83.928l.403 2.536-2.248 3.17-5.074 2.076-3.92-.519 2.479-3.689-1.21-3.574 3.862-2.767 2.133-1.614.519 1.845-.692 1.902 1.73-.058 2.017.692ZM24.559 41.445l-.807 2.075 2.536 2.19-3.516 2.48-7.552 2.248-2.249.634-3.228-.52-6.86-1.037 2.767-1.44-5.19-1.558 4.555-.634.057-.98L0 44.154l2.075-2.132 3.805-.461 3.46 2.19 4.035-1.73 2.94.865 4.208-1.671 4.036.23Zm82.67 99.089-.98 2.939.519 1.096-.519 1.902-2.421-1.384-1.557-.403-4.324-1.845.288-1.902 3.575.346 3.113-.404 2.306-.345Zm-19.601-10.953 1.903 2.594-.231 4.9-1.384-.231-1.21 1.211-1.153-.98-.289-4.439-.75-2.075 1.673.173 1.441-1.153Z"
    fill="#fff"
  />
  <path
    d="m100.138 110.271-.23 1.787.807 1.556-2.364-.576-2.248 1.326.23 1.787-.288 1.037 1.095 1.845 2.883 1.844 1.672 3.055 3.516 2.94 2.306-.057.807.807-.807.749 2.767 1.326 2.306 1.095 2.71 1.96.346.634-.461 1.326-1.787-1.73-2.652-.576-1.096 2.363 2.249 1.384-.231 1.902-1.211.23-1.441 3.171-1.268.288-.058-1.153.519-1.96.634-.807-1.326-2.132-1.037-1.845-1.269-.461-1.037-1.557-1.961-.691-1.383-1.499-2.19-.231-2.48-1.614-2.825-2.421-2.133-2.075-1.095-3.631-1.499-.404-2.421-1.21-1.326.461-1.672 1.729-1.21.231.288-1.557-1.615-.461-.864-2.824.98-1.095-.865-1.384.058-1.037 1.268.807 1.441-.173 1.557-1.269.519.577 1.383-.115.577-1.441 2.19.461 1.211-.634.173-1.441 1.787.518.288-.691 2.825-.634.75 1.21 4.208.98Zm31.823-32.453.576 1.556-2.075 1.153-.288 1.96-2.768 1.326h-2.709l-.807-1.095-1.442-.404-.345-.864.115-.98-1.268-.52-2.941-.633-.98-2.94 2.941-1.038 4.554.23 2.594-.345.519.692 1.441.23 2.883 1.672ZM77.655 99.607l-.808.058-.634-.289.231-2.017.75-.115.576.807-.115 1.556Z"
    fill="#fff"
  />
  <path
    d="m132.941 71.42 1.441.749.577 1.672 1.21 2.075-2.652 1.326-1.556.576-2.883-1.672-1.441-.23-.519-.692-2.594.346-4.554-.23-2.941 1.037-.288-2.594.98-2.19 2.364-1.153 2.537 2.594 2.133-.116.057-2.651 2.191-.577 1.211.404 2.536 1.268 2.191.058Zm-4.209 57.7-.576.115-.461.635-1.615-.058-1.037.807-1.96.288-1.326-.865-.577-1.556.288-1.268.404.058.058-.75 1.671-.576.692-.173.98-.173 1.384-.115 1.614 1.21.461 2.421Zm-8.589-5.418-.462.807-.807.346-.23-.692-1.096 1.787.289 1.21-.635-.288-.98-1.21-1.326-.75.289-.576.23-2.018.923-.864.519-.346.807.634.518.519.981.403 1.21.75-.23.288Zm13.317-92.056-3.69 1.21-1.845.289.462-2.19-3.344-1.211-3.402 1.037-.634 2.306-1.96 1.383-2.709-.749-3.056.115-2.94-1.614-1.268.807-1.499.116.058 2.075-4.612-.519-.346 1.787h-2.306l-1.326 2.248-1.96 3.516-3.286 4.554 1.037 1.153-.75 1.268-2.478-.058-1.384 3.113.577 4.439 1.787 1.671-.461 3.978-1.96 2.305-1.038 1.96-1.902-2.075-4.958 3.92-3.517.807-3.747-1.73-1.038-3.631-1.153-7.782 2.306-2.133 6.514-2.824 4.67-3.401 4.15-4.496 5.132-6.168 3.69-2.363 5.937-3.92 4.9-1.383 3.863.172 2.998-2.536 4.266.116 4.035-.577 7.898 2.248-2.824.807 3.113 1.96ZM112.071 7.263l-4.381 1.095-3.92-.634 1.268-.692-1.499-.864 4.209-.519 1.095.98 3.228.634Zm-14.758-4.9 7.264 1.96-4.958 1.038-.692 1.96-1.729.518-.519 2.306-2.537.115-4.9-1.671 1.73-.98-3.286-.807-4.44-2.248-1.844-2.018 5.361-.922 1.326.865h2.883l.576-.865 2.998-.115 2.767.864ZM111.38.634l4.266.865-2.537 1.383-5.822.288-6.169-.46-.577-.692h-2.94L95.122.865l6.054-.692 3.113.576L106.076 0l5.304.634Zm2.594 81.334 3.401.404 5.074-.058 1.441.404.807 1.095.346 1.556.98 1.326.231 1.383-1.615.75 1.096 1.614.288 1.614 1.845 3.112-.173.98-1.326.404-2.191 2.997.923 1.614-.635-.23-2.882-1.384-2.018.519-1.383-.346-1.615.75-1.556-1.268-1.096.518-.173-.23-1.498-1.787-2.133-.173-.404-1.153-1.96-.404-.346.923-1.614-.75.115-.98-2.133-.288-1.441-1.153-1.384-2.248.115-1.268-.864-1.902-1.096-1.21.692-.98-.807-1.787 1.787-1.038 4.093-1.614 3.344-1.153 2.767.577.346.864h2.652Zm22.484 22.078.922.403 1.038 1.038 1.153 1.498 1.96 2.191.346 1.556-.116 1.556.75 1.672 1.383.692 1.326-.634 1.384.634.231.98-1.326.749-.923-.346-.23 4.439-1.788-.404-2.306-1.326-3.401.865-1.326.922-4.381-.23-2.306-.519-1.096.231-1.037-1.499-.577-.634.577-.634-.75-.404-.865.807-1.787-1.095-.403-1.499-1.845-.807-.461-1.21-1.73-1.384 2.249-.691 1.499-2.479 1.095-2.421 1.672-.749 1.153-.807 1.845.403h1.844l1.442.922.922-.576 2.075-.346.577-.864h1.211Z"
    fill="#fff"
  />
  <path
    d="m126.715 118.514-.634.807.403 1.383 1.614 1.557-1.037 1.153-.346 1.152.346.462-.404.461-1.384.115-.98.173-.173-.288.346-.404.231-.922-.404.058-.634-.692-.519-.173-.461-.577-.576-.23-.462-.519-.518.231-.289 1.21-.691.231.23-.288-1.21-.75-.98-.403-.519-.519-.807-.634.634-.173.288-1.672-1.557-1.441.635-1.614-1.096.058.98-1.384-.98-1.037-.865-1.441 2.134-.923 1.844.173 1.73 1.384.461 1.21 1.845.807.403 1.499 1.787 1.095.865-.807.75.404-.577.634.577.634Zm-2.249-17.581-.691.98-.404 1.441-.577.346-3.17-1.096-.923.231-.576.865-1.326.461-.346-.231-1.326.519-1.095.115-.173.75-2.364.403-1.095-.346-1.557-.98-.403-1.21.173-.461.345-.807 1.269.057.922-.346.058-.345.519-.173.115-.807.634-.173.404-.634h.864l.173.23 1.096-.518 1.556 1.268 1.614-.75 1.384.346 2.018-.519 2.882 1.384Zm-16.315 9.338-2.248.98-.173 1.441-.98.403.058.98-1.153-.057-1.038-.577-.461.577-2.076-.116.635-.288-.808-1.556.231-1.787 2.421.288 1.384-.864 2.537-.058.518-.634.462.057.691 1.211Zm10.608-67.385-4.035.923-2.018 2.248.749 2.017-3.574 2.594-4.497 2.882-1.21 4.67 2.133 2.363 2.767 1.902-1.903 3.804-2.652.807-.345 5.765-1.211 3.285-3.286-.346-1.268 2.767-3.171.173-1.096-3.285-2.594-3.978-2.421-4.842 1.038-1.96 1.96-2.305.461-3.978-1.787-1.671-.577-4.439 1.384-3.113 2.479.058.75-1.268-1.038-1.153 3.286-4.554 1.96-3.516 1.326-2.248h2.306l.346-1.787 4.612.519-.058-2.075 1.499-.116 3.459 1.557 4.151 2.133 1.037 4.9 1.038 1.267Zm19.428 88.136.692-.403.634-2.306-1.557-.98 2.883-1.153 2.652.462.519 1.441 2.767 1.152-.404.923-3.574.173-1.153 1.153-2.248 1.959-1.153-1.671-.058-.75Z"
    fill="#fff"
  />
  <path
    d="m158.537 93.382 1.326 1.556.058.692 3.863 1.268 2.075-.577 2.075 1.672 1.672-.058 4.439 1.153.231 1.095-.75 1.845 1.038 2.018-.173 1.21-2.767.231-1.268 1.037.23 1.557-2.248.288-1.73 1.21-2.652.173-2.306 1.384.577 2.248 1.614.864 2.94-.23-.346 1.326-3.113.634-3.632 2.075-1.787-.75.404-1.671-3.402-1.095.404-.692 2.652-1.211-.98-.807-4.67-.922-.461-1.383-2.594.461-.75 2.017-1.902 2.652-1.384-.634-1.326.634-1.383-.692.691-.403.346-1.211.635-1.21-.346-.634.576-.289.346.519 1.73.115.749-.288-.577-.346.116-.576-1.153-.922-.634-1.499-1.153-.577.057-1.21-1.499-.98-1.153-.173-2.306-1.095-1.844.346-.635.519h-1.21l-.577.864-2.075.346-.923.576-1.441-.922h-1.845l-1.844-.403-1.153.807-.289-.98-1.729-.98.403-1.441.692-.98.634.23-.922-1.614 2.191-2.997 1.326-.404.173-.98-1.845-3.112 1.326-.173 1.383-.922 2.191-.116 2.825.288 3.286.865 2.248.058 1.096.519.98-.635.864.865 2.479-.173 1.211.346-.173-1.787.75-.807 2.363-.173 1.038.115.576-.806.865.172 2.825-.345 2.191 2.017-.519.75.461 1.095 2.248.173Zm-34.244 32.395-.691.173-1.672.576-.058.75-.403-.058-.346-1.326-.75-.403-.692-.98.462-.807.691-.231.289-1.21.518-.231.462.519.576.23.461.577.519.173.634.692.404-.058-.231.922-.346.404.173.288ZM77.424 94.823l-1.614-.865-1.788-1.556-2.594.749-2.075-.288 1.441-.98 2.306-5.188 3.747-1.499 2.306.116.52 1.21-.52 3.228-.692 1.326H76.79l.634 3.747ZM37.3 144.741l-1.269.923-1.614-.519-1.557.403.52-2.882-.174-2.248-1.383-.346-.634-1.383.288-2.421 1.268-1.326.288-1.499.692-2.19v-1.556l-.519-1.326-.115-1.268 1.095-.923 1.269-.518.691 1.787h1.73l.519-.462 1.787.116.75 1.844-1.384.98-.173 2.882-.461.519-.173 1.787-1.326.288 1.153 2.191-.923 2.421 1.038 1.095-.461.98-1.153 1.383.23 1.268Zm85.149-62.427-5.074.058-3.401-.404.404-1.498 3.632-1.153 2.94.634 1.268.519-.115.98.346.864Z"
    fill="#fff"
  />
  <path
    d="m54.421 121.511 1.153 1.384 5.477 1.671 1.095-.807 3.344 1.672 3.401-.461.231 2.133-2.825 2.421-3.805.807-.288 1.21-1.845 2.018-1.153 2.997 1.153 2.133-1.73 1.614-.691 2.421-2.306.749-2.133 2.825-3.92.057-2.883-.057-1.96 1.268-1.21 1.383-1.5-.288-1.095-1.268-.807-2.075-2.825-.577-.23-1.268 1.153-1.383.46-.98-1.037-1.095.923-2.421-1.153-2.191 1.326-.288.172-1.787.462-.519.173-2.882 1.383-.98-.75-1.844-1.786-.116-.52.462h-1.729l-.691-1.787-1.269.518-1.095.923.288-2.594-1.153-1.557 4.266-2.651 3.575.634h3.977l3.113.634 2.48-.231 4.784.173Zm34.072 4.612-.865 2.824-1.384-.749-.75-2.421.52-1.384 1.845-1.383.634 3.113Z"
    fill="#fff"
  />
  <path
    d="m76.213 99.376.634.289.808-.058 1.383.922 4.15.692-1.383 2.421-.23 2.594-.75.634-1.326-.346.116.922-2.076 2.018v1.672l1.384-.577 1.037 1.557-.057 1.037.864 1.384-.98 1.095.865 2.824 1.614.461-.288 1.557-2.594 2.075-5.88-.98-4.266 1.21-.346 2.191-3.402.461-3.343-1.672-1.096.807-5.477-1.671-1.152-1.384 1.556-2.19.577-7.263-2.94-3.805-2.134-1.844-4.381-1.384-.23-2.651 3.747-.749 4.785.922-.865-4.093 2.71 1.557 6.572-2.767.864-2.94 2.421-.75.462 1.269 1.268.057 1.384 1.441 2.017 1.672 1.442-.288 2.536 1.671ZM42.315 57.297l.23.115h.174l.057.116v.23l.115.173-.057.116-.346-.231-.115-.23-.116-.116-.115-.173h.173Zm.173-.922.461.115.115.115-.057.23-.058.059-.23-.289-.289-.057-.115-.23.173.057Zm-.738-.785.046.093h.173v.173h-.23l-.116.115-.345-.115-.116-.058-.115-.172.288-.058.058-.058.32.054-.147-.111.115-.462.288.058.173.288v.058l.346.115.173.288.173.116-.058.346-.288-.231-.115-.115-.115-.058-.058-.115-.115-.115h-.289l-.046-.035Zm2.122-.368-.116-.115.173-.116-.057.231Z"
    fill="#fff"
  />
  <path
    d="m42.488 55.51-.23-.115-.174-.173-.057-.173.057-.058.231-.057h.173l.346.23-.058.116.058.115.346.115v.115l-.23.173-.462-.288Zm1.268-.346-.173.23-.173-.114h-.173l.116-.173-.058-.23.058-.059.115.231.288.115Zm-.519 0h-.115l-.115-.23.058-.173.115.23.057.173Zm61.513 94.189-.115.173-.289-.115-.288-.173v-.289l-.058-.057h.346l.231.173.115.115.058.173Zm-.922-.634-.289-.058v-.115l.231-.058.231.173-.173.058Z"
    fill="#fff"
  />
</svg>