<svg width="122" height="115" fill="none" xmlns="http://www.w3.org/2000/svg">
  <path
    d="m99.562 65.828.749 2.94h-1.614v2.421l.634.519-1.384.75.116 1.498-.75 1.499v1.498l-.576.807-9.743-1.844-1.557-3.805-.173-.807.52-.23.23 1.037 2.421-.576 2.652.115 1.96.115 1.903-2.536 2.133-2.363 1.73-2.306.749 1.268ZM61.858 17.581l-1.037.115-1.614-2.132-.116-.577h-1.326l-1.095-.98-.577.058-1.383-1.038-2.422-.922-.057-1.787-.75-1.268 4.036-.576.807.922 1.268.634-.403.922 1.845 1.268-.634 1.21 1.498.98 1.442.577.518 2.594Z"
    fill="#fff"
  />
  <path
    d="m60.82 17.696-2.19-.518-1.845-1.672-.691-1.441.576-.058 1.095.98h1.326l.116.577 1.614 2.132Zm3.633-9.799 1.441-1.499 2.018 1.903 2.075 2.651 1.441.173 1.096.98-2.421.288.057 2.882-.23 1.269-.98.864.46 1.787-.749.23-2.248-1.96.692-1.786-1.096-1.095-1.095.288-3.055 2.71-.52-2.595-1.44-.576-1.5-.98.635-1.21-1.845-1.269.404-.922-1.269-.634-.807-.923.634-.634 2.421 1.096 1.672.173.346-.404-1.902-2.017.692-.462.864.116 2.48 2.19 1.383.288.346-.922Z"
    fill="#fff"
  />
  <path
    d="m53.153 3.113 2.94.75 1.211 1.498 2.075.864-.691.462 1.902 2.017-.346.404-1.672-.173-2.42-1.096-.635.635-4.036.576-3.228-1.845-3.17.173.172-1.556-1.21-2.479-1.96-1.383-1.73-.404L39.087.461l.23-.461 2.652.634 4.44.577 4.38 1.786.692.692 1.672-.576Zm7.667 14.583 1.038-.115 3.056-2.71 1.095-.287 1.096 1.095-.692 1.787 2.248 1.96.75-.23 1.44 2.766 3.056.75 2.48 1.844 4.438.634 4.612-.98.115-.865 2.537-.691 1.73-2.133 2.075.115 1.153-.691 2.248.345 3.805 1.902 2.479.404 4.209 3.228 2.306.173.98 3.055-.346 4.611-.288 2.71 1.441.576-.923 2.018 1.557 2.94.692 2.363 2.479.634.634 2.363-2.248 3.343 1.844 1.96 1.615 2.248 3.286 1.614.576 3.228 1.557.635.518 1.671-4.323 1.96-.634 4.266-6.111-1.096-3.575-.864-3.632-.461-1.902-4.554-1.614-.634-2.364.634-2.94 1.787-4.036-1.21-3.516-2.883-3.17-1.038-2.538-3.516-2.997-4.9-1.615.577-2.133-1.21-.98 1.44-2.017-1.96-.289-1.96h-.98l.116-2.708-2.018-2.767-4.093-2.075-2.652-3.516.288-2.883 1.326-1.268-.519-2.133-2.19-1.152-2.71-4.381-2.19-2.94.403-1.153-1.672-4.208 1.902-1.095.692 1.441 1.845 1.672 2.19.518Z"
    fill="#fff"
  />
  <path
    d="m57.65 23.46 2.71 4.382 2.19 1.152.519 2.133-1.326 1.268-.288 2.883 2.652 3.516 4.093 2.075 2.018 2.767-.116 2.709h.98l.289 1.96 2.017 1.96-1.902-.173-2.133-.346-1.903 3.574-5.88-.288-9.685-7.436-4.958-2.594-3.92-1.038-1.787-4.496 6.341-3.862.577-4.439-.692-2.709 1.556-.922 1.211-2.306 1.21-.576 3.633.518 1.21.923 1.384-.634ZM32.053 37.871l.23 1.5-.345.576h.058l-.404 1.152-1.21-.46-.404 2.42.865.404-.75.519-.057.98 1.44-.462.231 1.441-1.037 5.88-.404-.922-2.248-5.419.807-1.21-.23-.23.634-1.73.345-2.767.346-.98h1.096l.23-.634.807-.058Z"
    fill="#fff"
  />
  <path
    d="m43.007 41.964-.519.577-5.995 1.844 3.459 3.747-.923.576-.403 1.268-2.364.52-.634 1.325-1.21 1.153-3.575-.634-.173-.519 1.038-5.88-.231-1.44.346-1.096-.23-2.306.403-1.152 3.632 1.498 5.592-3.977 1.787 4.496Zm28.479 8.128.865 1.614-.173.864 1.383 2.767-2.248.115-.98-1.786-2.883-.346 1.903-3.574 2.133.346Zm20.927 49.284-1.268-2.594-2.998-6.11 9.397-3.689 1.499-7.378-1.73-2.652v-1.498l.75-1.5-.115-1.498 1.383-.75-.634-.518v-2.421h1.614l1.73 2.536 1.902 1.326 2.364.519 1.96.634 1.672 2.133.98 1.21 1.153.519.115.807-.98 2.19-.404 1.038-1.268 1.21-.98 2.537-1.441-.23-.577.921-.403 1.845.634 2.479-.288.46h-1.442l-1.902 1.384-.173 1.787-.692.807-2.018-.057-1.153.922.116 1.499-1.5 1.037-1.786-.346-2.076 1.269-1.44.172Zm7.149-33.548-.75-1.268.807-1.21.404.288-.115 1.556-.346.634Zm-15.047 4.035-.865.288-1.037-.749-.462-2.71.635-1.901.864-.404 1.038 1.153.288 2.133-.461 2.19Z"
    fill="#fff"
  />
  <path
    d="m67.45 53.32 2.883.346.98 1.787 2.248-.116 1.557 3.228 1.672.807.691 1.326 2.306 1.556.404 1.5-.23 1.267.518 1.21 1.038 1.038.519 1.21.576.923 1.038.75.865-.289.75 1.441.172.807 1.557 3.805 9.743 1.844.576-.807 1.73 2.652-1.5 7.378-9.396 3.69-9.167 1.44-2.882 1.672-2.018 3.862-1.499.634-.865-1.21-1.21.173-3.17-.404-.635-.346-3.69.058-.864.346-1.384-.922-.75 1.786.462 1.557-1.384 1.21-.519-1.614-1.037-1.095-.289-1.499-1.787-1.325-1.902-3.113-1.096-2.998-2.363-2.536-1.441-.634-2.364-3.516-.519-2.537v-2.19l-2.075-4.15-1.615-1.441-1.73-.75L39.145 69l.116-.807-1.038-1.96-.98-.807-1.441-2.767-2.191-2.94-1.787-2.536h-1.557l.288-2.018.058-1.325.23-1.5 3.575.635 1.21-1.153.635-1.326 2.363-.519.404-1.268.922-.576-3.459-3.747 5.996-1.844.519-.577 3.92 1.038 4.958 2.594 9.685 7.436 5.88.288ZM41.22 37.468l-5.592 3.977-3.632-1.498h-.058l.346-.577-.23-1.499.518-2.017 1.557-1.441-.692-1.441-1.441-.173-.634-2.825.576-1.556.75-.807.692-.807-.116-2.017 1.096.691 3.228-1.037 1.73.691h2.536l3.286-1.383 1.672.058 3.401-.577-1.21 2.306-1.557.922.692 2.71-.577 4.438-6.341 3.862Z"
    fill="#fff"
  />
  <path
    d="m45.082 7.378 3.171-.173 3.228 1.845.75 1.268.057 1.787 2.422.922 1.383 1.038-1.902 1.095 1.672 4.208-.404 1.153 2.191 2.94-1.384.634-1.21-.922-3.632-.52-1.21.577-3.402.576-1.672-.057-3.286 1.383h-2.537l-1.73-.691-3.228 1.037-1.095-.692.115 2.018-.691.807-.75.807-1.326-1.672.98-1.383-1.845.346-2.651-.865-1.845 2.133-4.612.403-2.71-1.96-3.286-.115-.576 1.499-2.076.461-3.113-1.96-3.344.058-2.19-3.69-2.422-2.017 1.153-2.882L0 14.987l2.94-3.516 4.612-.115.923-2.825 5.764.519 3.229-2.363 3.344-1.038 4.9-.115 5.65 2.594 4.554 1.44 3.344-.576 2.651.346 3.171-1.96Zm47.331 91.998-2.306.98-.519 1.672v1.268l-3.113 1.557-5.073 1.729-2.71 2.594-1.441.23-.98-.23-1.845 1.556-2.018.692-2.71.173-.806.23-.634.98-.865.288-.461.923-1.615-.116-.98.519-2.306-.173-.922-2.19v-2.018l-.577-1.095-.749-2.709-1.038-1.499.635-.23-.404-1.672.346-.692-.23-1.614 1.383-1.21-.461-1.556.75-1.788 1.383.923.864-.346 3.69-.058.634.346 3.171.404 1.21-.173.865 1.21 1.5-.634 2.017-3.862 2.883-1.672 9.166-1.44 2.998 6.11 1.268 2.593Z"
    fill="#fff"
  />
</svg>