<svg width="475" height="96" fill="none" xmlns="http://www.w3.org/2000/svg">
  <rect width="96" height="96" rx="9" fill="#2E85FF" />
  <path
    fill-rule="evenodd"
    clip-rule="evenodd"
    d="M54 27H42v15H27v12h15v15h12V54h15V42H54V27Z"
    fill="#fff"
  />
  <path
    fill-rule="evenodd"
    clip-rule="evenodd"
    d="M399.943 31.76c-2.595 0-4.698-1.97-4.698-4.386 0-2.438 2.103-4.407 4.698-4.407 2.573 0 4.675 1.969 4.675 4.407 0 2.417-2.102 4.385-4.675 4.385ZM201.36 36.635V42.9h-7.137V71h-8.099V42.9h-5.078v-6.264h5.078v-3.244c0-6.935 4.765-10.358 10.739-10.358 2.796 0 5.101.582 6.152.94l-1.633 6.264c-.671-.201-1.745-.492-3.02-.492-3.021 0-4.139 1.499-4.139 4.183v2.707h7.137ZM138.819 71V25.182h-8.3V71h8.3Zm15.677 0V50.865c0-4.967 2.998-7.83 7.271-7.83 4.184 0 6.689 2.752 6.689 7.338V71h8.099V49.12c.022-8.233-4.676-12.931-11.768-12.931-5.145 0-8.68 2.46-10.246 6.286h-.403v-5.839h-7.741V71h8.099Zm49.363-16.98c0 10.783 6.331 17.651 16.69 17.651 8.009 0 13.512-3.915 14.944-9.888l-7.562-.85c-1.096 2.908-3.78 4.43-7.27 4.43-5.236 0-8.703-3.446-8.77-9.33h23.938V53.55c0-12.059-7.249-17.361-15.705-17.361-9.844 0-16.265 7.226-16.265 17.83Zm8.054-3.446h16.153c-.045-4.675-3.177-8.076-7.831-8.076-4.832 0-8.076 3.691-8.322 8.076Zm29.682-13.938V71h8.098V50.798c0-4.363 3.289-7.45 7.741-7.45 1.365 0 3.065.246 3.759.47v-7.45c-.739-.134-2.014-.224-2.909-.224-3.937 0-7.226 2.237-8.479 6.22h-.358v-5.728h-7.852ZM265.504 71V36.636h7.741v5.84h.403c1.432-3.916 4.877-6.287 9.486-6.287 4.631 0 7.964 2.394 9.284 6.286h.358c1.521-3.825 5.325-6.286 10.314-6.286 6.309 0 10.738 4.072 10.738 11.745V71h-8.121V49.187c0-4.25-2.595-6.174-5.861-6.174-3.915 0-6.22 2.684-6.22 6.555V71h-7.942V48.852c0-3.535-2.349-5.84-5.772-5.84-3.49 0-6.309 2.864-6.309 7.092V71h-8.099Zm54.001-16.98c0 10.783 6.331 17.651 16.689 17.651 8.01 0 13.513-3.915 14.945-9.888l-7.562-.85c-1.096 2.908-3.781 4.43-7.271 4.43-5.235 0-8.703-3.446-8.77-9.33h23.939V53.55c0-12.059-7.249-17.361-15.706-17.361-9.843 0-16.264 7.226-16.264 17.83Zm8.054-3.446h16.152c-.044-4.675-3.176-8.076-7.83-8.076-4.832 0-8.076 3.691-8.322 8.076Zm28.272 3.289c0 11.32 6.063 17.741 14.162 17.741 5.906 0 8.568-3.512 9.843-6.018h.492V71h7.965V25.182h-8.121v17.137h-.336c-1.23-2.483-3.758-6.13-9.821-6.13-7.942 0-14.184 6.22-14.184 17.674Zm16.421 11.097c5.168 0 8.076-4.475 8.076-11.142s-2.863-10.984-8.076-10.984c-5.392 0-8.166 4.586-8.166 10.984 0 6.443 2.819 11.142 8.166 11.142Zm31.718-28.324h-8.099V71h8.099V36.636Zm5.766 17.316c0 10.404 6.197 17.72 16.465 17.72 8.636 0 14.14-5.124 14.721-12.417h-7.74c-.694 3.691-3.356 5.816-6.913 5.816-5.057 0-8.323-4.228-8.323-11.253 0-6.935 3.334-11.096 8.323-11.096 3.892 0 6.286 2.505 6.913 5.816h7.74c-.559-7.45-6.376-12.349-14.765-12.349-10.068 0-16.421 7.27-16.421 17.764Zm46.662 17.742c-6.555 0-11.5-3.58-11.5-10.336 0-7.741 6.377-9.732 13.043-10.448l1.029-.11h.004c5.309-.56 7.469-.788 7.469-2.977v-.135c0-3.378-2.058-5.302-5.817-5.302-3.96 0-6.242 2.014-7.047 4.363l-7.562-1.074c1.79-6.264 7.338-9.486 14.564-9.486 6.555 0 13.961 2.73 13.961 11.813V71h-7.786v-4.72h-.268c-1.477 2.885-4.699 5.414-10.09 5.414Zm10.067-13.021c0 3.826-3.087 7.07-7.964 7.07-3.378 0-5.795-1.544-5.795-4.52 0-3.11 2.707-4.407 6.332-4.922l.36-.049c2.213-.3 6.072-.824 7.067-1.628v4.049Z"
    fill="#112950"
  />
</svg>