<svg width="224" height="151" fill="none" xmlns="http://www.w3.org/2000/svg">
  <path
    d="m96.794 122.837-.865-2.767 1.326-1.614.98-.634 1.211 1.268-1.153.807-.576.923-.116 1.614-.807.403Zm57.42-4.957-.346.057v-.172l-1.153-3.517-.006-.034-.052-.6-.807-1.671 2.018.288.98-2.133 1.787.231.173 1.441.692.864v1.211l-.807.749-1.326 1.96-1.153 1.326ZM68.776 58.277l-.115 1.21.75 2.191-.635 1.499.346.98-1.614 2.305-.98 1.153-.634 2.306.115 2.363-.173 5.938-2.71.46-.806-2.536.173-8.53-.692-.75-.116-1.845-1.153-1.268-.98-1.095.404-1.96 1.153-.404.634-1.613 1.614-.346.692-1.096 1.095-1.095h1.153l2.48 2.133Z"
    fill="#fff"
  />
  <path
    d="m58.284 46.172-.288 1.787.46 1.672 1.788 2.42.115 1.788 3.748.864-.058 2.536-.692 1.096-1.614.346-.634 1.614-1.153.403-2.825-.058-1.499-.288-1.038.577-1.44-.289-5.65.173-.116 2.133.461 2.767-2.248-.922-1.499.115-1.153.922-1.441-.75-.577-1.267-1.44-.807-.231-2.133.922-1.556-.115-1.269 2.594-3.055.519-2.536.864-.922 1.557.519 1.384-.75.46-.98 2.48-1.614.634-1.153L53.614 46l1.788-.519.807.692h2.075Zm76.559 23.345 2.249 1.442 1.787 1.498.057 1.21 2.249 1.903 1.383 1.614.808 2.19 2.478 1.499.519 1.153-1.037.403-2.133-.057-2.422-.404-1.21.288-.519.923-1.038.115-1.268-.807-3.632 1.845-1.499-.346-.461.288-.923 2.248-2.479-.75-2.363-.345-2.076-1.384-2.709-1.268-1.73 1.21-1.268 1.845-.288 2.594-2.076-.173-2.248-.634-1.902 1.96-1.73 3.459-.346-1.096-.173-1.671-1.499-1.21-1.21-1.903-.289-1.326-1.556-1.96.288-1.095-.346-1.556.231-2.882.807-.634 1.614-3.747 2.652-.288.577-.98.576.115.807.807 4.093-1.383 1.384-1.442 1.672-1.325-.346-1.268.922-.346 3.171.23 2.998-1.729 2.306-4.035 1.614-1.499 2.075-.634.404 1.557 1.902 2.305v1.557l-.461 1.498.231 1.153 1.095 1.096.288.172Z"
    fill="#fff"
  />
  <path
    d="m39.49 63.004 1.441.807.577 1.268 1.441.75 1.153-.923 1.499-.115 2.248.922.865 5.303-1.383 3.055-.865 4.208 1.383 3.17-.115 1.5h-1.499l-2.248-.692h-2.133l-3.863.691-2.248 1.038-3.229 1.383-.634-.115.23-3.055.347-.461-.115-1.441-1.384-1.557-1.038-.23-.922-1.038.692-1.671-.289-1.788.116-1.037h.518l.231-1.614-.23-.75.288-.518 1.21-.404-.807-2.997-.75-1.499.29-1.268.633-.288.461-.346.865.576h2.537l.576-1.037.577.057.922-.403.52 1.556.748-.46 1.384-.577Zm67.393 10.952-1.614 3.747-.807.634-.231 2.882.346 1.556-.288 1.096 1.556 1.96.288 1.325 1.211 1.902 1.499 1.21.173 1.672.346 1.096-.231 1.96-2.594-.865-2.652-.98-4.093-.115-.404-.23-1.96.46-1.96-.46-1.556.23-5.362-.058.52-2.94-1.327-2.478-1.499-.577-.634-1.672-.865-.518.058-1.038.807-2.651 1.557-3.574h.922l1.96-2.19 1.21-.058 1.846 1.556 2.248-1.268.288-1.556.75-1.5.46-1.844 1.73-1.499.635-2.593.691-.865.461-1.902.808-2.364 2.709-2.882.173-1.21.346-.692-1.326-1.441.115-1.21.865-.173 1.326 2.363.288 2.42-.115 2.48 1.845 3.343h-1.845l-.922.23-1.499-.346-.692 1.73 1.96 2.19 1.441.634.461 1.499 1.038 2.536-.461 1.038Zm39.49 8.07 2.018 3.055 1.499.461.865-.634 1.499.23 1.787-.749.807 1.557 2.94 2.478-.173 4.323 1.326.52-1.095 1.267-1.211 1.038-1.268 1.902-.692 1.73-.173 2.939-.75 1.441-.057 2.767-.923 1.038-.115 2.19-.461.288-.346 2.076.807 1.671.058.577-.692 5.937.865 2.075-.577 1.556 1.038 2.652 1.96 2.017.404 2.018.922.98-.173.634-.519-.173-4.439.634-.865.461-.98 2.364.692 1.614-.634 4.38-.519 3.69.865.691 2.248 1.441.923-.691.115 3.977h-2.479l-1.268-2.017-1.153-1.614-2.479-.519-.692-1.902-2.018 1.152-2.536-.518-1.096-1.672-2.018-.346-1.556.058-.173-1.153-1.095-.058-1.499-.23-2.018.576-1.384-.115-.807.346.231-4.381-1.038-1.384-.231-2.305.519-2.248-.634-1.384-.057-2.363-3.921.057.289-1.325h-1.672l-.173.634-2.018.173-.865 2.132-.519.923-1.787-.519-1.037.519-2.191.288-1.211-1.902-.749-1.211-.923-2.248-.749-2.709-9.628-.058-1.153.404-.98-.058-1.326.519-.46-1.153.806-.403.116-1.614.576-.923 1.153-.807.865.404 1.153-1.441 1.787.057.173 1.038 1.211.634 1.96-2.306 1.902-1.787.807-1.21-.057-3.055 1.441-3.574 1.499-1.902 2.133-1.787.403-1.153.058-1.383.519-1.269-.173-2.132.403-3.286.635-2.306.98-1.96.173-2.248.288-2.594 1.268-1.844 1.73-1.21 2.709 1.267 2.076 1.384 2.363.346 2.479.75.923-2.249.461-.288 1.499.346 3.632-1.845 1.268.807 1.038-.115.519-.922 1.21-.289 2.421.404 2.134.057 1.037-.403Z"
    fill="#fff"
  />
  <path
    d="m117.318 88.424-.173 2.248-.98 1.96-.634 2.306-.404 3.286.173 2.132-.519 1.269-.058 1.383-.403 1.153-2.133 1.787-1.499 1.902-1.441 3.574.057 3.055-.807 1.21-1.902 1.787-1.96 2.306-1.211-.634-.173-1.038-1.787-.057-1.153 1.441-.865-.404-1.21-1.268-.98.634-1.326 1.614-2.652-3.919 2.479-2.076-1.211-2.421 1.153-.922 2.19-.461.231-1.672 1.787 1.787 2.883.173.98-1.729.403-2.479-.345-2.882-1.557-2.19 1.441-4.324-.807-.691-2.421.288-.922-1.902.23-1.614 4.093.115 2.652.98 2.594.865.231-1.96 1.729-3.459 1.903-1.96 2.248.634 2.076.173Zm79.557-34.009-.98.922-1.384-.346-1.153-1.21-1.441-2.133-1.499-1.21-.865-1.269-2.882-1.498-2.249-.058-.807-.75-1.845.865-2.075-1.671-.865 2.767-3.805-.807-.403-1.442 1.153-5.476.173-2.42.98-1.153 2.306-.635 1.556-2.075 2.076 4.266 1.095 3.4 1.845 1.788 4.612 3.516 1.902 2.075 1.845 2.19 1.038 1.269 1.672 1.095Z"
    fill="#fff"
  />
  <path
    d="m184.422 47.613 2.249.058 2.882 1.498.865 1.269 1.499 1.21 1.441 2.133 1.153 1.21-1.095 1.614-1.038 1.73.288 1.037.116 1.153 1.844.058.75-.288.749.691-.692 1.268 1.269 2.075 1.268 1.788 1.268 1.325 10.781 4.381 2.767-.057-8.993 11.125-4.209.172-2.882 2.594-2.076.058-.864 1.21h-2.249l-1.326-1.268-2.998 1.557-.922 1.556-2.191-.346-.749-.403-.75.115-1.037-.058-4.151-3.112h-2.306l-1.095-1.21-.058-2.076-1.672-.634-2.018-4.035-1.499-.865-.576-1.498-1.73-1.787-2.017-.288 1.095-2.076 1.73-.115.461-1.095-.116-2.882v-.462l.865-3.861 1.499-1.038.288-1.499 1.326-2.882 1.903-1.787 1.153-3.69.403-3.17 3.805.808.865-2.767 2.075 1.671 1.845-.864.807.75Zm-84.63 45.423-.23 1.614.922 1.902 2.421-.288.807.691-1.441 4.324 1.556 2.19.346 2.882-.403 2.479-.98 1.729-2.883-.173-1.787-1.787-.23 1.672-2.191.461-1.153.922 1.21 2.421-2.478 2.076-3.344-3.747-2.133-3.055-2.018-3.805.115-1.268.75-1.153.75-2.709.691-2.767 1.095-.173h4.728v-4.438l1.556-.23 1.96.46 1.96-.46.404.23ZM57.131 60.64l-.23 1.153 1.325 1.903v2.709l.346 2.882.807 1.383-.749 3.286.288 1.844.865 2.364.75 1.326-5.131 2.132-1.845 1.269-2.94 1.095-2.883-1.038.115-1.498-1.383-3.17.865-4.209 1.383-3.055-.865-5.303-.46-2.767.114-2.133 5.65-.173 1.441.289 1.038-.577 1.5.288Zm-37.472-5.303.172 1.384h.52l.864-.52.519.116.922.98 1.384.288.865-.807L26 56.26l.75-.52.634.116.75.807.345 1.038 1.326 1.556-.634.922-.173 1.21.692-.345.403.403-.173 1.096.98 1.095-.634.288-.288 1.268.75 1.499.806 2.997-1.21.404-.288.519.23.749-.23 1.614h-.52l-.922-.115-.634 1.498h-.922l-.634-.807.23-1.498-1.383-2.248-.808.403-.749.115-.865.173.058-1.326-.519-.98.116-1.095-.692-1.556-.923-1.326h-2.594l-.75.692-.922.115-.576.807-.346.98-1.787 1.672-1.384-2.19-1.268-1.442-.807-.519-.808-.749-.345-1.614-.462-.807-.98-.634 1.5-1.787.98.058.864-.577.692-.057.519-.461-.23-1.21.345-.404.058-1.269 1.556.058 2.364.865.692-.058.23-.403 1.787.288.462-.23ZM2.421 52.743l.461-1.671 3.517-.058.75-.922 1.037-.058 1.268.922h.98l1.096-.576.634 1.037-1.441.865-1.384-.115-1.383-.75-1.211.865h-.577l-.807.519-2.94-.058Z"
    fill="#fff"
  />
  <path
    d="m12.568 54.818-.058 1.269-.346.403.23 1.21-.518.462-.692.057-.865.577-.98-.058-1.499 1.787-1.671-1.499-1.384-.288-.75-1.037.058-.577-.98-.75-.23-.806 1.73-.577 1.094.116.865-.462 5.996.173Zm81.344 38.218v4.438h-4.728l-1.095.173-.634-.519 1.095-4.15 5.362.058Zm99.85-6.11-2.825 4.15.115 13.488 1.902 3.055-2.306 1.499-.807 1.556-1.268.231-.461 2.652-1.095 1.498-.635 2.421-1.326 1.211-4.669-3.689-.173-2.133-11.818-7.551.23-2.71-.807-1.441v-.173l.922-1.498 1.615-2.421 1.21-2.71-1.499-4.265-.403-1.845-1.557-2.594 1.96-2.19 2.191-2.421 1.672.634.058 2.075 1.095 1.21h2.306l4.151 3.113 1.037.058.75-.115.749.403 2.191.346.922-1.556 2.998-1.557 1.326 1.269h2.249ZM29.517 72.976l-.116 1.037.289 1.787-.692 1.672.922 1.038 1.038.23 1.384 1.557.115 1.44-.346.462-.23 3.055-.866.058-3.343-1.787-2.998-2.825-2.767-2.017-2.19-2.364.806-1.21.173-1.096 1.5-1.96 1.498-1.729.75-.115.806-.403 1.384 2.248-.23 1.498.634.807h.922l.634-1.498.923.115Zm41.277-42.483.058 8.531-1.787 2.479-.23 2.306-2.883.576-4.44.288L60.36 46l-2.075.173H56.21l-.807-.692-1.788.52-3.055 1.555-.634 1.153-2.48 1.614-.46.98-1.384.75-1.556-.52-.865.923-.519 2.536-2.594 3.056.115 1.268-.922 1.556.23 2.133-1.383.576-.75.461-.519-1.556-.922.404-.577-.058-.576 1.037h-2.537l-.864-.576-.462.346-.98-1.095.173-1.096-.403-.403-.692.346.173-1.21.634-.923-1.326-1.556-.346-1.038-.75-.807-.633-.115-.75.519-1.095.518-.865.807-1.384-.288-.922-.98-.519-.115-.865.519h-.518l-.173-1.384.173-1.153-.289-1.383-1.153-1.038-.634-2.132-.115-2.306 1.095-.692.577-2.19 1.037-.058 2.249 1.038 1.845-.75 1.21.23.52-.806 12.97-.058.75-2.594-.577-.46-1.441-15.968L36.492 9.05l4.9-.058 10.724 8.07 10.78 8.07.75 1.73 2.017 1.037 1.5.634.057 2.364 3.574-.404Z"
    fill="#fff"
  />
  <path
    d="m41.393 8.992-4.9.058 1.383 15.967 1.441 15.967.577.461-.75 2.594-12.971.058-.519.807-1.21-.23-1.845.749-2.249-1.038-1.037.058-.577 2.19-1.095.692-2.076-2.536-1.96-2.767-2.075-.98-1.557-1.038H8.186l-1.614.807-1.557-.288-1.153 1.153-.23-1.96.922-1.845.461-3.458-.23-3.69-.346-1.844.346-1.845-.807-1.729-1.614-1.614.749-1.21h12.51l-.519-5.361.865-1.902 2.998-.288.115-9.512 10.377.231L29.574 0l11.819 8.992Zm63.069 7.782.922 5.764 1.268.98.058 1.153 1.384 1.268-.692 1.614-1.038 7.494-.115 4.842-4.036 3.458-1.326 4.9 1.384 1.384v2.363l2.133.058-.346 1.787-.865.172-.115 1.211-.576.058-2.249-4.035-.807-.173-2.479 2.075-2.536-1.095-1.73-.173-.922.518-1.903-.115-1.902 1.557-1.672.115-3.92-1.902-1.557.864-1.672-.057-1.21-1.384-3.229-1.383-3.516.46-.807.75-.462 2.133-.922 1.499-.23 3.343-2.48-2.133h-1.153L64.05 57.24l.058-2.537-3.748-.864-.115-1.787-1.787-2.421-.461-1.672.288-1.787 2.075-.173 1.154-1.326 4.438-.288 2.883-.576.23-2.306 1.788-2.479-.058-8.53 4.497-1.615 9.224-7.263 10.838-7.09 5.073 1.614 1.845 2.017 2.191-1.383Z"
    fill="#fff"
  />
  <path
    d="m103.078 55.222 1.326 1.441-.346.692-.173 1.21-2.709 2.882-.807 2.364-.462 1.902-.691.865-.634 2.593-1.73 1.5-.461 1.844-.75 1.498-.288 1.557-2.248 1.268-1.845-1.556-1.21.057-1.96 2.19h-.923l-1.557 3.575-.807 2.651-3.401 1.326-1.21-.173-1.27.807-2.593-.058-1.788-2.363-1.095-2.651-2.306-2.421h-5.304l.173-5.938-.115-2.363.634-2.306.98-1.153 1.614-2.305-.346-.98.635-1.499-.75-2.19.115-1.211.23-3.343.923-1.499.462-2.133.807-.75 3.516-.46 3.229 1.383 1.21 1.384 1.672.057 1.557-.864 3.92 1.902 1.672-.115 1.902-1.557 1.903.116.922-.52 1.73.174 2.536 1.095 2.48-2.075.806.173 2.249 4.035.576-.058Zm53.384 50.38 1.268 2.075-.173 2.19-.922.462-1.787-.231-.98 2.133-2.018-.288.346-2.076.461-.288.115-2.19.923-1.038.807.404 1.96-1.153Zm18.563-57.585-.403 3.17-1.153 3.69-1.903 1.786-1.326 2.882-.288 1.499-1.499 1.038-.865 3.861v.462l-.461-.116.058-1.844-.461-1.268-1.672-1.441-.519-2.652.346-2.767-1.499-.23-.231.807-1.96.23.865 1.038.288 2.248-1.729 2.017-1.557 2.652-1.672.403-2.767-2.132-1.21.749-.289 1.037-1.672.75-.115.75h-3.228l-.461-.75-2.364-.173-1.153.634-.922-.288-1.672-2.19-.577-.98-2.363.518-.865 1.672-.75 3.343-1.153.692-.98.403-.288-.172-1.095-1.096-.231-1.153.461-1.498V64.04l-1.902-2.305-.404-1.557v-.922l-1.21-1.095-.058-2.133-.749-1.441-1.096.23.288-1.383.808-1.499-.404-1.556 1.038-1.153-.692-.865.749-2.248 1.442-2.767 2.767.289-.634-14.7V27.38h3.689l-.288-7.378h37.991l1.211 3.632-.692.634.692 3.862 1.441 4.38 1.269.923 1.844 1.383-1.556 2.075-2.306.635-.98 1.152-.173 2.421-1.153 5.477.403 1.44Z"
    fill="#fff"
  />
  <path
    d="m167.588 66.405.116 2.882-.462 1.095-1.729.115-1.095 2.076 2.017.288 1.73 1.787.576 1.498 1.499.865 2.018 4.035-2.191 2.421-1.96 2.19-2.018 1.73h-2.306l-2.594.864-2.075-.864-1.326 1.037-2.94-2.478-.807-1.557-1.787.75-1.499-.23-.865.633-1.499-.461-2.018-3.055-.519-1.153-2.479-1.499-.807-2.19-1.383-1.614-2.249-1.902-.057-1.21-1.787-1.5-2.249-1.44.98-.404 1.153-.692.75-3.343.865-1.672 2.363-.518.577.98 1.671 2.19.923.288 1.153-.634 2.364.173.461.75h3.228l.115-.75 1.672-.75.289-1.037 1.21-.75 2.767 2.133 1.672-.403 1.557-2.652 1.729-2.017-.288-2.248-.865-1.038 1.96-.23.231-.807 1.499.23-.346 2.767.519 2.652 1.672 1.44.461 1.269-.058 1.844.461.116ZM17.64 47.325l.116 2.306.634 2.132 1.153 1.038.288 1.383-.172 1.153-.462.23-1.787-.287-.23.403-.692.058-2.364-.865-1.556-.058-5.996-.172-.865.46-1.095-.115-1.73.577-.46-2.825 2.94.058.807-.519h.576l1.21-.864 1.384.749 1.384.115 1.441-.864-.634-1.038-1.095.576h-.98l-1.269-.922-1.037.058-.75.922-3.517.058-1.325-2.883L0 46.922l1.441-.749 1.614-2.594.808-1.902 1.153-1.153 1.556.288 1.614-.807h1.787l1.557 1.038 2.075.98 1.96 2.767 2.076 2.536Zm6.054 22.999-1.499 1.73-1.499 1.96-.173 1.095-.807 1.21-.864-.288-2.306-1.499-1.73-1.96-.519-1.383-.403-2.71 1.787-1.67.346-.98.576-.808.922-.115.75-.692h2.594l.923 1.326.691 1.556-.115 1.096.519.98-.058 1.325.865-.173Zm109.939-41.387.634 14.699-2.767-.289-1.442 2.767-.749 2.248.692.865-1.038 1.153.404 1.556-.808 1.499-.288 1.383 1.096-.23.749 1.44.058 2.134 1.21 1.095v.922l-2.075.634-1.614 1.499-2.306 4.035-2.998 1.73-3.171-.231-.922.346.346 1.268-1.672 1.326-1.384 1.44-4.093 1.384-.807-.807-.577-.115-.576.98-2.652.288.461-1.038-1.037-2.536-.462-1.499-1.441-.634-1.96-2.19.692-1.73 1.499.346.922-.23h1.845l-1.845-3.343.115-2.48-.288-2.42-1.326-2.363.346-1.787-2.133-.058V49.63l-1.384-1.384 1.326-4.9 4.036-3.458.115-4.842 1.038-7.494.692-1.614-1.384-1.268-.058-1.153-1.268-.98-.922-5.764 3.17-2.017 12.972 7.09 13.029 7.09ZM59.956 60.698l-.404 1.96.98 1.095 1.153 1.268.116 1.845.691.75-.172 8.53.807 2.537-2.595.807-.75-1.326-.864-2.364-.288-1.844.75-3.286-.808-1.383-.346-2.882v-2.71L56.9 61.793l.231-1.153 2.825.058Zm101.233 44.5-.115 2.248-.634 2.594.922 1.441 1.442-.864 1.902-.231.404.461 1.902-.922-1.326-1.268 1.095-1.672 1.615-1.671 11.818 7.551.173 2.133 4.669 3.689-1.614 4.611.173 2.075 2.018 1.326.115.98-.98 2.248.173 1.095-.23 1.787 1.037 2.306 1.269 3.689 1.153.807-2.652 2.133-3.575 1.441-1.96-.058-1.21 1.096-2.249.115-.865.461-3.862-1.038-1.268.116.057-.058-1.037-1.383-.173-3.92-1.672-1.96-.231.692-.576-.98-3.171-.692-1.845-1.095-2.075-.634-1.269-.634-.173-.115-1.556-3.805-.231-2.248-2.594-2.536.807-1.384-.634-1.498.115-1.557-.576-.519.173-1.614.346-.057 1.153-1.326 1.326-1.96.807-.749v-1.211l-.692-.864-.173-1.441.922-.462.173-2.19-1.268-2.075 1.153-.461 3.574.057Z"
    fill="#fff"
  />
  <path
    d="m168.107 85.657 1.557 2.594.403 1.845 1.499 4.266-1.21 2.709-1.615 2.42-.922 1.499v.173l-.115-.23-1.73-.75-1.383.923-2.076.519-1.499 2.132.173 1.441-3.574-.057-1.153.461-1.96 1.153-.807-.404.057-2.767.75-1.441.173-2.94.692-1.729 1.268-1.902 1.211-1.038 1.095-1.268-1.326-.519.173-4.323 1.326-1.037 2.075.864 2.595-.864h2.306l2.017-1.73Zm24.848 21.962-1.903-3.055-.115-13.488 2.825-4.15.864-1.21 2.076-.059 2.882-2.593 4.209-.173 8.993-11.126-2.767.058-10.781-4.38-1.268-1.326-1.268-1.788-1.269-2.075.692-1.268 1.096-2.017 1.095.691.692 1.557 1.556 1.556h1.615l2.997-.98 3.517-.403 2.825-1.153 1.614-.23 1.153-.692 1.845-.116 1.037-.115 1.442-.519 1.729-.403 1.441-1.268h1.269l.115 1.037-.231 2.133.116 1.96-.634 1.326-.807 4.035-1.384 4.092-1.903 4.727-2.651 5.418-2.71 4.15-3.805 5.073-3.228 2.998-4.843 3.689-3.055 2.767-3.575 4.496-.749 1.96-.749.864Z"
    fill="#fff"
  />
</svg>