<svg width="252" height="326" fill="none" xmlns="http://www.w3.org/2000/svg">
  <path
    d="m181.482 322.8-1.729-.115h-2.883l-3.459-7.839 1.787 1.614 2.479 2.651 4.497 2.133 4.208.865-.461 1.729-2.536.173-1.903-1.211Zm-17.583-119.32 6.515 5.994 2.651.577 4.209 2.767 3.401 1.441.634 1.614-2.421 5.649 3.344.98 3.632.576 2.421-.576 2.479-2.882.173-3.228 1.499-.75 1.845 2.191.23 2.939-2.421 2.018-1.903 1.499-3.055 3.631-3.459 5.015-.288 2.998-.231 3.804.692 3.689-.519.807.231 2.364.173 1.959 4.496 3.171.116 2.536 2.248 1.614.173 1.787-1.902 4.727-4.036 2.017-5.88.75-3.459-.404 1.21 2.248.058 2.709 1.038 1.845-1.442 1.326-2.94.518-3.228-1.383-.865.98 1.441 3.631 2.306 1.096 1.326-1.153 1.442 1.902-2.422 1.153-1.672 2.306.692 3.631-.057 1.96h-2.768l-1.729 1.845.058 2.766 3.747 2.652 2.998.692.115 3.285-2.652 2.018-.346 4.208-2.018 1.383-.518 1.672 2.421 3.747 2.652 2.017-1.211-.173-2.825-.576-6.975-.461-2.018-2.075-1.096-2.652-1.787.231-1.499-1.326-1.787-3.747 1.557-1.614.057-2.248-1.037-1.845.403-3.112-.634-4.785-1.038-2.133 1.038-.691-.807-1.384-1.614-.691.461-1.557-1.787-1.383-2.133-4.208.98-.75-1.903-4.496-.461-3.746-.115-3.286 1.441-1.326-1.902-3.631-.923-3.344 1.73-2.421-.807-3.112.922-3.574-.807-3.401-.922-.692-2.825-6.398 1.21-3.805-.98-3.574.519-3.401 1.499-3.458 1.903-2.306-1.153-1.441.461-1.21-.923-6.168 3.229-1.787.692-3.862-.519-.922 2.306-3.344 4.323.922 2.134 2.652.922-2.997 3.69.173.576.807ZM76.963 62.312h-.98l.75-4.15.403-2.94.057-.577.404-.172.519.46 1.44-2.247.635-.058-.058.576h.577l-.173 1.038-.75 1.556.231.577L79.5 57.7l.173.345-.576 1.903-.75.98-.634.115-.75 1.268Z"
    fill="#fff"
  />
  <path
    d="m177.677 195.813-.173-1.153-3.113-1.902-2.997-.058-5.535 1.096-1.21 3.228.115 2.017-.865 4.439-.576-.807-3.69-.173-.922 2.997-2.133-2.652-4.324-.922-2.306 3.343-2.249.519-1.787-5.13-2.133-4.15.634-3.574-1.844-1.556-.692-2.652-1.845-2.536 1.672-3.978-1.672-3.112.634-1.269-.692-1.383 1.096-1.845-.173-3.112v-2.652l.634-1.21-3.171-5.995 2.421.346 1.672-.116.634-1.095 2.768-1.499 1.671-1.383 4.209-.634-.231 2.767.519 1.441-.173 2.479 3.747 3.285 3.69.634 1.326 1.384 2.248.749 1.442 1.038h2.017l1.96 1.095.289 2.133.692 1.095.172 1.556-.98.058 1.615 4.323 6.168.173-.288 2.133.461 1.441 1.845 1.037.98 2.306-.346 2.94-.749 1.614.461 2.075-.923.807Z"
    fill="#fff"
  />
  <path
    d="m179.58 114.075 1.787.346.346-.807-.577-.691.346-1.096 1.326.346 1.557-.403 1.844.807 1.442.749.98-.98.749.115.461 1.038 1.557-.231 1.268-1.441 1.038-2.709 1.96-3.401 1.153-.173.749 2.075 1.73 6.456 1.787.634.058 2.537-2.479 3.055.98 1.095 5.823.576.115 3.747 2.479-2.421 4.093 1.326 5.477 2.248 1.614 2.133-.519 2.075 3.805-1.153 6.341 1.96 4.901-.115 4.842 3.055 4.266 4.15 2.537 1.038 2.767.173 1.211 1.153 1.153 4.726.634 2.248-1.211 6.11-1.556 2.421-4.439 5.131-1.96 4.208-2.306 3.17-.807.115-.75 2.709.519 6.918-.634 5.706-.173 2.421-.923 1.499-.288 4.957-2.998 4.785-.288 3.862-2.479 1.556-.634 2.248h-3.459l-4.9 1.384-2.133 1.671-3.459 1.095-3.517 2.94-2.364 3.689-.173 2.767.75 2.018-.173 3.747-.461 1.786-1.96 2.076-2.595 6.513-2.306 2.882-1.844 1.787-.865 3.517-1.672 2.075-1.211-2.075 1.038-1.787-2.191-2.479-2.767-2.075-3.632-2.364-1.095.116-3.632-2.882-1.96.403 3.459-5.015 3.055-3.631 1.903-1.499 2.421-2.018-.231-2.939-1.844-2.191-1.499.75.403-2.133.173-2.191-.173-2.075-1.21-.634-1.153.577-1.211-.173-.461-1.384-.634-3.401-.692-1.095-2.249-1.038-1.268.75-3.401-.75-.231-5.014-1.153-2.018.923-.807-.462-2.075.75-1.614.346-2.94-.98-2.306-1.845-1.037-.461-1.441.288-2.133-6.169-.173-1.614-4.323.98-.058-.173-1.556-.691-1.095-.289-2.133-1.96-1.095h-2.018l-1.441-1.038-2.248-.749-1.326-1.384-3.69-.634-3.747-3.285.173-2.479-.519-1.441.231-2.767-4.209.634-1.672 1.383-2.767 1.499-.634 1.095-1.672.116-2.421-.346-1.845.634-1.499-.404-.057-5.591-2.537 2.133-2.883-.058-1.325-2.017-2.191-.173.576-1.614-1.902-2.248-1.499-3.344.865-.634-.116-1.614 1.961-1.037-.404-2.018.807-1.268.173-1.729 3.632-2.537 2.652-.691.461-.577 2.94.173 1.269-10.145.057-1.614-.519-2.075-1.499-1.383.058-2.71 1.845-.576.634.403.115-1.441-1.902-.403v-2.306l6.341.115 1.096-1.325.922 1.21.577 2.191.634-.462 1.787 1.96 2.537-.23.634-1.153 2.421-.865 1.384-.634.403-1.556 2.364-1.038-.173-.807-2.767-.288-.404-2.363.173-2.479-1.441-.922.634-.346 2.364.461 2.594.922.98-.864 2.364-.577 3.689-1.383 1.211-1.441-.404-1.038 1.73-.115.692.807-.462 1.671 1.153.519.692 1.73-.922 1.325-.577 3.113.807 1.902.173 1.73 2.018 1.729 1.614.173.346-.75 1.038-.173 1.499-.634 1.037-.98 1.845.346.75-.173Z"
    fill="#fff"
  />
  <path
    d="m132.653 77.53-2.133.634-.923 1.844-1.326 1.038-1.037 1.383-.519 2.652-1.038 2.19 1.672.231.346 1.672.692.864.173 1.441-.404 1.384.058.807.807.288.692 1.268 4.208-.346 1.902.461 2.191 3.229 1.326-.404 2.364.173 1.845-.404 1.153.635-.692 1.959-.75 1.268-.346 2.652.635 2.479.864 1.095.116.807-1.672 1.844 1.153.807.865 1.326.922 3.689-.634.462-.577-2.191-.922-1.21-1.095 1.325-6.342-.115v2.306l1.902.403-.115 1.441-.634-.403-1.845.576-.057 2.71 1.498 1.383.519 2.075-.057 1.614-1.269 10.145-1.671-1.96-.981-.057 2.018-3.805-2.536-1.729-1.96.346-1.211-.634-1.787.98-2.422-.519-2.017-3.862-1.499-.922-1.038-1.787-2.191-1.73-.864.346-1.384-.864-1.614-1.211-.923.577-2.767-.519-.807-1.614-.634.057-3.228-2.075-.404-1.153 1.211-.288-.116-1.844.808-1.384 1.614-.23 1.441-2.306 1.268-1.96-1.153-.865.692-2.132-.634-3.401.749-.98-.403-3.113-1.268-2.017.518-1.787 1.038.288.634-1.095-.634-2.19.404-.52 1.671.116 2.595-2.594 1.383-.404.058-1.21.807-3.17 1.96-1.672 2.018-.116.346-.749 2.536.288 2.652-1.844 1.326-.807 1.672-1.787 1.153.23.75.98-.692 1.21Zm-40.24 3.112.692 2.018 1.153 1.499 1.44 1.556-1.267.346-.058 1.499.634.518-.519.462.116.634-.346.749-.173.75-1.73-.808-.634-.807.404-.634-.058-.807-.865-.864-1.268-.75-1.038-.46-.173-1.096-.807-.634.115 1.037-.691.923-.692-1.038-.98-.403-.404-.692.058-1.153.519-1.153-.865-.519.807-.749.519-.461 2.075.98.75-.461 1.038.288.46.75.98.287.808-.806Zm17.41-43.75 1.096 1.325 2.998-.403 1.037.864 2.422 2.306 1.844 1.672 1.038-.058 1.845.75-.346 1.037 2.306.173 2.248 1.499-.461.864-2.191.462-2.19.172-2.133-.288-4.67.346 2.421-2.017-1.21-.98-2.076-.23-.98-1.096-.461-2.075-1.845.115-2.882-.98-.865-.807-4.093-.576-1.038-.692 1.326-.922-3.113-.173-2.537 1.902-1.326.058-.576.922-1.614.403-1.326-.403 1.844-1.095.865-1.384 1.557-.807 1.73-.692 2.478-.345.807-.461 2.71.288 2.537.057 2.824 1.269Zm23.579 17.465.173-1.037-.749-1.096.864-.634.404-1.44-.058-1.96.462-.635h2.479l1.844.923.865-.058.404 1.326 1.787-.116-.231 1.096 1.441.173 1.442 1.325-1.326 1.5-1.499-.808-1.499.173-1.038-.173-.634.692-1.268.23-.404-.922-1.095.519-1.557 2.536-.749-.576-.058-1.038Z"
    fill="#fff"
  />
  <path
    d="m118.01 121.684.461 2.825-.98 2.363-3.517 3.92-3.862 1.441-1.961 3.228-.518 2.479-1.788 1.556-1.441-1.902-1.326-.404-1.326.288-.173-1.325.923-.865-.404-1.556 1.672-2.767-.749-1.614-1.211 1.729-2.018-1.672.634-1.037-.576-3.343 1.153-.577.576-2.306 1.211-2.363-.173-1.499 1.787-.807 2.249-1.441 3.228 2.075.634-.057.807 1.614 2.767.519.923-.577 1.614 1.211 1.384.864ZM77.136 55.222l-.404 2.94-.75 4.15h.98l.98.692.347-.577.864.462-1.614 1.44-1.672 1.038-.288.692.173.75-.75.922-.806.23.172.461-.691.404-1.153.922-.173.519-1.614-.634-2.018-.058-1.384-.75-1.614-1.498.23-1.095.462-.865-.404-.692 1.903-2.997h4.15l.231-1.268-.461-.23-.288-.808-1.096-.864-1.037-1.21 1.44-.059.29-2.075h2.997l2.998.058ZM177.908 99.03l-.577 3.344-2.017.922.173.865-.635 1.96 1.384 2.651h1.038l.403 2.075 1.903 3.228-.75.173-1.845-.346-1.037.98-1.499.634-1.038.173-.346.75-1.614-.173-2.018-1.729-.173-1.73-.807-1.902.577-3.113.922-1.325-.692-1.73-1.153-.519.462-1.671-.692-.807-1.73.115-2.133-2.767.923-1.037v-1.73l2.017-.576.807-.692-1.037-1.383.288-1.326 2.71-2.19 2.075 1.383 1.902 2.363.058 1.96 1.211.058 1.729 1.787 1.211 1.326Z"
    fill="#fff"
  />
  <path
    d="M95.296 65.598 94.2 65.54l-.519.519-1.153.46h-.807l-.75.462-.633-.115-.52-.577-.345.116-.519.864-.288-.057-.116.807-1.21.98-.692.46-.346.462-.865-.75-.807.98h-.692l-.749.058-.115 1.845h-.462l-.46.864-1.038.173-.462-1.153-.98-.346.404-1.498-.404-.404-.691-.23-1.442.403-.057-.46-.923-.635-.634-.692-.922-.346.75-.922-.174-.75.288-.69 1.672-1.038 1.614-1.442.346.173.75-.634.922-.057.288.288.52-.173 1.498.346 1.5-.116 1.037-.403.461-.404.98.173.75.231.864-.058.692-.346 1.441.52.462.115.922.691.865.807 1.095.577.75.98Zm38.74-17.408.058 1.96-.404 1.44-.864.634.749 1.096-.173 1.037-2.075-.634-1.557.23-1.96-.23-1.556.692-1.615-1.153.404-1.21 2.94.518 2.364.289 1.268-.807-1.326-1.614.231-1.442-2.018-.576.865-.98 1.96.115 2.709.635Zm-17.468 6.801-1.037.635-1.73-.635-1.672-1.325.462-.865 1.383-.23.75.115 2.133.346 1.556.864.461 1.038-2.306.057ZM54.767 25.478l1.269-.115-1.845 3.285-1.038 2.652-1.037 4.957-.635 1.787.231 2.018.75 1.844.23 2.825 1.73 2.767.46 2.133.98 1.786 3.287.98 1.095 1.557 2.998-1.038 2.479-.346 2.537-.691 2.075-.634 2.248-1.5 1.038-2.132.692-3.113.692-1.095 2.306-.98 3.516-.864 2.825.172 1.96-.345.692.807-.346 1.787-2.018 2.19-1.037 2.248.519.634-.692 1.614-1.21 2.882-.693-.98-.634.058-.634.058-1.441 2.248-.52-.461-.403.172-.057.577-2.998-.058H71.14l-.288 2.075-1.441.058 1.037 1.21 1.096.865.288.807.461.23-.23 1.269h-4.151l-1.903 2.997.404.692-.461.865-.231 1.095-3.228-3.977-1.5-1.21-2.536-.98-1.845.287-2.767 1.384-1.672.346-2.133-.98-2.363-.692-2.768-1.672-2.363-.518-3.402-1.73-2.479-1.787-.634-.98-1.787-.23-3.113-1.153-1.095-1.672-3.113-2.132-1.269-2.306-.46-1.845 1.094-.346-.172-1.037.922-.98.23-1.268-.864-1.672v-1.44l-.75-1.903-2.19-3.69-2.652-2.881-1.096-2.306-2.363-1.499-.404-.922.98-2.248-1.383-.865-1.442-1.845-.115-2.536-1.614-.346-1.326-1.902-.98-1.844.173-1.153-.865-2.767-.173-2.825.461-1.44-1.787-1.5-1.095.174-1.384-.98-1.038 1.498-.057 1.73-.577 2.824.577 1.499 1.614 2.536.23.922.404.231.058 1.268.576-.058v2.421l.75.923.288 1.325 1.557 1.845.23 3.459.577 1.614.519 1.729-.173 1.96 1.498.115.923 1.672.865 1.671-.173.692-1.615 1.326h-.576l-.404-2.248-1.671-2.133-1.96-1.787-1.442-.922.692-2.71-.058-2.017-1.21-1.153-1.787-1.614-.52.461-.576-.98-1.73-.864-1.268-2.19.289-.231 1.21.173 1.557-1.384.576-1.671-1.672-2.652-1.498-.98-.462-2.306-.346-2.478-.46-2.94L0 .692 3.632.403 7.725 0l-.519.75 4.036 1.786 6.284 2.594h8.705l.461-1.556h5.42L32.86 4.9l1.211 1.21 1.384 1.614.461 1.902.23 2.075 1.326 1.096 2.306 1.095 2.768-2.882 2.594-.115 1.845 1.498.922 2.537.519 2.19 1.384 2.075.115 2.594.519 1.73 2.248 1.152 2.075.807Z"
    fill="#fff"
  />
  <path
    d="m95.296 65.598-.289.403-.288.807.23 1.326-.864 1.268-.461 1.499-.288 1.614.115.98-.058 1.671-.519.346-.403 1.614.115.98-.692.922.058.98.461.635-.807.806-.98-.288-.461-.75-1.038-.287-.75.46-2.075-.98-.519.462-1.037-1.153-1.442-1.498-.634-1.211-1.268-1.21-1.441-1.672.403-.577.461.577.289-.23 1.037-.174.462-.864h.46l.116-1.845.75-.058h.691l.807-.98.865.75.346-.461.692-.461 1.21-.98.116-.807.288.057.519-.864.346-.116.519.577.634.115.75-.461h.806l1.153-.461.52-.519 1.095.058Zm17.122 23.46-.404.52.634 2.19-.634 1.095-1.038-.288-.518 1.787-1.038-1.038-.577-2.018.807-.98-.807-.23-.518-1.21-1.615-1.038-1.383.23-.75 1.269-1.383.922-.692.115-.346.807 1.441 2.018-.922.46-.461.52-1.557.23-.461-2.248-.461.634-1.038-.23-.576-1.442-1.326-.288-.865-.403h-1.384l-.115.807-.346-.577.173-.749.346-.75-.115-.633.518-.462-.634-.518.058-1.5 1.268-.345 1.096 1.326-.116.807 1.269.173.345-.346.865.922 1.614-.288 1.442-.922 2.017-.75 1.153-1.095 1.788.23-.116.346 1.787.116 1.384.692 1.038 1.095 1.153 1.037Zm23.751 47.959-2.94-.173-.461.577-2.652.691-3.632 2.537-.173 1.729-.807 1.268.404 2.018-1.96 1.037.115 1.614-.865.634 1.499 3.344 1.902 2.248-.576 1.614 2.191.173 1.326 2.017 2.882.058 2.537-2.133.057 5.591 1.499.404 1.845-.634 3.171 5.995-.634 1.21v2.652l.173 3.112-1.096 1.845.692 1.383-.634 1.269 1.672 3.112-1.672 3.978-.634 1.902-1.614.922-3.402-2.133-.461-1.498-6.745-3.689-6.169-4.093-2.709-2.248-1.614-3.055.461-1.095-3.113-4.842-3.69-6.802-3.459-7.379-1.383-1.729-1.153-2.709-2.652-2.421-2.364-1.499.98-1.614-1.73-3.574.98-2.594 2.537-2.305.404 1.556-.923.865.173 1.325 1.326-.288 1.326.404 1.441 1.902 1.788-1.556.518-2.479 1.961-3.228 3.862-1.441 3.517-3.92.98-2.363-.461-2.825.864-.346 2.191 1.73 1.038 1.787 1.499.922 2.017 3.862 2.422.519 1.787-.98 1.21.634 1.961-.346 2.536 1.729-2.018 3.805.98.057 1.672 1.96Zm41.508 58.796 1.153 2.018.231 5.015 3.401.749 1.269-.749 2.248 1.037.692 1.095.634 3.401.461 1.384 1.211.173 1.153-.577 1.21.634.173 2.075-.173 2.191-.403 2.133-.173 3.228-2.479 2.882-2.421.576-3.632-.576-3.344-.98 2.421-5.649-.634-1.614-3.401-1.441-4.209-2.767-2.652-.577-6.514-5.994.865-4.439-.116-2.017 1.211-3.228 5.534-1.096 2.998.058 3.113 1.902.173 1.153ZM79.672 71.593l-.403.864-1.903-.057-1.153-.346-1.268-.75-1.73-.23-.864-.807.173-.519 1.153-.922.692-.404-.173-.461.807-.23.922.345.634.692.923.634.057.461 1.442-.403.691.23.404.404-.404 1.499Zm108.671 28.245-1.787 3.17.172 2.536 1.269 2.191-.634 1.556-.289 1.729-.864 1.557-1.845-.807-1.557.403-1.326-.346-.346 1.096.577.691-.346.807-1.787-.346-1.903-3.228-.403-2.075h-1.038l-1.383-2.651.634-1.96-.173-.865 2.018-.922.576-3.343 3.92.749.346-.692 2.652-.288 3.517 1.038Zm10.78 146.24-.922 2.363-3.113 2.018-2.422-.75-1.614.404-3.171-1.557-2.075.116-2.248-2.076-.231-2.363.519-.807-.692-3.689.231-3.804.288-2.998 1.96-.403 3.632 2.882 1.095-.115 3.632 2.363 2.767 2.075 2.191 2.479-1.038 1.787 1.211 2.075ZM169.722 90.154l-2.71 2.19-.288 1.326 1.037 1.383-.807.692-2.017.576v1.73l-.923 1.037 2.133 2.767.404 1.038-1.211 1.441-3.689 1.383-2.364.577-.98.864-2.594-.922-2.364-.461-.634.346 1.441.922-.173 2.479.404 2.363 2.767.288.173.807-2.364 1.038-.403 1.556-1.384.634-2.421.865-.634 1.153-2.537.23-1.787-1.96-.923-3.689-.864-1.326-1.153-.807 1.672-1.844-.116-.807-.865-1.095-.634-2.479.346-2.652.75-1.268.691-1.96-1.153-.634-1.844.404-2.364-.173-1.326.403-2.191-3.228-1.902-.46-4.209.345-.691-1.268-.807-.288-.058-.807.404-1.384-.173-1.44-.692-.865-.346-1.672-1.672-.23 1.038-2.191.519-2.652 1.037-1.383 1.326-1.038.923-1.844 2.133-.634-.116.864-1.96.462.98 1.671-.173 1.96-1.556 2.133 1.095 2.94 1.441-.23.865-2.71-.98-1.268v-2.825l4.151-1.499-.346-1.729 1.211-1.21.98 2.651 2.306.058 1.96 2.017.115 1.269h2.883l3.516-.346 1.787 1.614 2.422.46 1.902-1.152.058-.922 4.093-.23 3.862-.058-2.824 1.095 1.037 1.787 2.595.23 2.421 1.845.403 2.94 1.672-.058 1.269.865Zm3.689 224.692 3.459 7.839h2.883l1.729.115-.288 1.384-1.845 1.095-1.383-.115-1.788-.288-2.421-1.038-3.113-.519-4.324-1.96-3.689-1.844-5.65-3.978 2.652.75 4.958 2.363 4.208 1.268.692-1.614-.173-2.421 1.96-1.498 2.133.461Z"
    fill="#fff"
  />
  <path
    d="m149.948 205.267.518.922-.691 3.862-3.229 1.787.923 6.168-.462 1.21 1.153 1.441-1.902 2.306-1.499 3.458-.519 3.401.98 3.574-1.21 3.805 2.825 6.398.922.692.807 3.401-.922 3.574.807 3.112-1.73 2.421.923 3.344 1.902 3.631-1.441 1.326.115 3.286.461 3.746 1.903 4.496-.98.75 2.133 4.208 1.787 1.383-.461 1.557 1.614.691.807 1.384-1.038.691 1.038 2.133.634 4.785-.403 3.112 1.037 1.845-.057 2.248-1.557 1.614 1.787 3.747 1.499 1.326 1.787-.231 1.096 2.652 2.017 2.075 6.976.461 2.825.576h-2.479l-.98.865-1.96 1.268.98 3.286-1.095.057-3.632-1.095-4.324-2.479-4.382-2.017-1.844-2.248-.173-2.075-2.422-2.421-2.882-6.11-.115-3.459 1.96-2.767-4.785-1.095 1.556-3.17-1.153-6.053 3.748 1.268-1.038-7.551-2.306-.98.576 4.554-2.017-.519-.865-5.188-1.153-6.802.634-2.536-1.902-3.574-1.384-4.15 1.268-.173.346-5.937.692-5.937.058-5.477-1.903-5.591.346-3.055-1.211-4.554 1.038-4.496-.519-7.148v-7.724l.058-8.243-.865-6.052-1.211-5.246 1.615-.922.634-1.902 1.845 2.536.691 2.652 1.845 1.556-.634 3.574 2.133 4.15 1.787 5.13 2.249-.518Zm36.261-92.69.865-1.614.288-1.672.577-1.556-1.211-2.191-.173-2.536 1.788-3.17 1.095.403 2.364.865 3.401 3.112.461 1.499-1.96 3.401-1.038 2.709-1.268 1.441-1.557.231-.461-1.038-.749-.115-.98.98-1.442-.749ZM163.15 1.326h-.173l-.058.057.058.116-.231.115-.058-.058.116-.057h.057l.058-.173.173-.058.058.058Zm3.17 79.662-.115.289-.173.23-.115.058-.058.23.115.346-.115.058v.403l.115.173.116.115-.116.116-.057.173v.403l-.116.058-.23.115-.288.058h-.173l-.289.058-.288-.058-.23.058-.173-.058-.289.115-.23-.115h-.346l-.173.115-.173-.057.288-.116.173-.173.231-.057.23-.173.116-.173.346.057.172-.23-.115-.461.115-.23v-.405l-.172-.231-.173-.058-.231-.057-.058-.058.231-.173.634-.057.115-.116h.635l.057-.057.692-.116h.115Z"
    fill="#fff"
  />
</svg>