<svg width="173" height="68" fill="none" xmlns="http://www.w3.org/2000/svg">
  <path
    d="m80.422 1.441-.577 1.902.577 3.517-.634 3.055-1.845 2.075.346 2.767 2.594 2.248.058.864 1.96 1.499 1.499 6.629 1.095 3.286.23 1.729-.46 2.997.23 1.73-.346 2.017.346 2.306-1.268 1.556 1.96 2.71.115 1.556 1.21 2.075 1.442-.692 2.594 1.73 1.442 2.305-10.839 7.09-9.224 7.263-4.496 1.614-3.575.404-.057-2.364-1.5-.634-2.017-1.037-.75-1.73-10.78-8.07-10.723-8.07-11.818-8.992.058-.692.057-.23.058-4.38 5.13-2.768 3.114-.576 2.594-.98 1.21-1.845 3.69-1.44.173-2.768 1.787-.346 1.442-1.325 4.093-.634.576-1.442-.807-.806-1.095-3.92-.173-2.248-1.095-2.364 2.94-2.017 3.343-.634 1.903-1.499 2.94-1.153 5.189-.634 5.073-.288 1.556.519L73.792.865l3.286-.058 1.269.865 2.075-.23Zm81.344 21.213 2.248 5.418.404.922-.75 1.5-.403 2.766-.692 1.96-.692.634-1.153-1.21-1.556-1.615-2.71-5.303-.288.346 1.614 3.862 2.248 3.747 2.825 5.764 1.326 2.018 1.153 2.075 3.113 4.093-.576.634.23 2.42 3.921 3.344.634.75H134.67l-.576-13.662-.75-13.143-1.153-2.997.635-2.248-.577-1.614.98-1.787 4.151-.058 3.113.98 3.171 1.095 1.499.577 2.306-1.153 1.21-1.038 2.71-.345 2.248.46 1.038 1.845.634-1.21 2.537.864 2.479.231 1.441-.922Z"
    fill="#fff"
  />
  <path
    d="m133.229 21.328-.98 1.787.577 1.614-.635 2.248 1.153 2.997.75 13.143.576 13.661.289 7.379h-3.69v1.556l-13.029-7.09-12.971-7.09-3.171 2.017-2.19 1.384-1.845-2.018-5.074-1.614-1.44-2.306-2.595-1.729-1.441.692-1.211-2.075-.115-1.557-1.96-2.709 1.268-1.556-.346-2.306.346-2.017-.23-1.73.46-2.997-.23-1.73-1.096-3.285 1.5-.807.23-1.614-.346-1.499 2.076-1.44.922-1.211 1.499-1.038.057-2.824 3.69 1.268 1.326-.346 2.594.634 4.209 1.672 1.614 3.285 2.825.692 4.496 1.556 3.459 1.845 1.442-.98 1.441-1.672-.922-2.824.864-1.845 2.133-1.73 2.133-.46 4.267.75 1.153 1.613 1.153.058 1.037.634 3.113.403.865 1.21ZM48.022 8.012l1.096 2.364.173 2.248 1.095 3.92.807.806-.576 1.442-4.093.634-1.442 1.326-1.787.345-.173 2.767-3.69 1.441-1.21 1.845-2.594.98-3.114.576-5.13 2.767-.058 4.38h-.519l.058 1.96-1.96.116-1.038.865h-1.441l-1.153-.52-2.652.404-1.095 2.883-1.038.288-1.557 4.669-4.554 3.977-1.153 5.13-1.384 1.672-.403 1.326-7.206.288H.173l.173-1.73 1.268-.98 1.095-1.959-.172-1.268L3.69 50.38l1.844-2.363 1.096-.577.922-2.133.115-2.017 1.211-2.248 2.19-1.384 2.076-3.746.058-.058 1.672-1.441 2.94-.404 2.536-2.536 1.615-.98 2.71-3.113-.693-4.553 1.269-3.228.518-1.96 2.076-2.479 3.113-1.671 2.364-1.557 2.133-3.804 1.037-2.306 2.249.058 1.787 1.556 2.94-.23 3.17.806h1.384Z"
    fill="#fff"
  />
  <path
    d="m27.326 35.854-.058.23-.057.692-.115 5.65-10.378-.231-.115 9.51-2.998.289-.864 1.902.518 5.36H.75L0 60.468l.173-1.556H.23l7.206-.288.403-1.326 1.384-1.672 1.153-5.13 4.554-3.977 1.557-4.67 1.038-.288 1.095-2.882 2.652-.403 1.153.519h1.441l1.038-.865 1.96-.115-.058-1.96h.52Zm63.012-20.29-.058 2.824-1.499 1.038-.922 1.21-2.076 1.441.346 1.499-.23 1.614-1.5.807-1.498-6.629-1.96-1.499-.058-.864-2.594-2.248-.346-2.767 1.845-2.075.634-3.055-.577-3.517.577-1.902L83.708 0l2.133.403v1.903L88.378.922l.23.692-1.441 1.845.058 1.671 1.095.923-.288 3.228-2.018 1.844.692 2.018 1.614.057.807 1.787 1.21.577Z"
    fill="#fff"
  />
</svg>