<svg width="390" height="124" fill="none" xmlns="http://www.w3.org/2000/svg">
  <path
    d="m135.016 77.587 2.537-.173 5.304-3.343-.462 1.153 4.843 2.71 10.55 8.992.634-1.845 4.843 2.017 3.574-.922 1.902.634 2.364 2.075 2.306.692 1.903 1.556 3.459-.518 2.536 2.19-1.095 2.421-2.191.346 1.441 3.574-.922 1.671-6.226-1.21.576 6.514-1.153.807-5.246 1.441 5.073 6.34-1.672.923.981 2.133-2.018-.577-1.96-1.326-4.555-.346-4.958-.115-.922.404-4.727-1.557-1.442.807.289 2.133-5.304-1.268-1.787.519-.173 1.614-1.499.691-3.113 2.537-.519 2.651h-1.153l-1.326-1.729-3.863-.115-1.441-2.998-1.499-.057-.864-3.689-4.382-2.652-4.958.288-3.286.519-3.805-3.286-2.767-1.383-5.304-2.594-.634-.288-6.918 2.132 3.575 13.489-1.5.173-2.767-2.882-2.248-1.038-3.228.75-1.038 1.268-.346-.923.346-1.498-.865-1.268-3.747-1.269-2.133-3.285-1.845-.923-.346-1.21 2.94.346-.576-2.652 2.364-.576 2.709.519-.403-3.517-1.096-2.248-2.882.173-2.71-.864-2.94 1.556-2.537.807-1.614-.634-.115-1.845-2.48-2.42-2.075.115-3.055-2.421.98-2.767-1.038-.692 1.269-3.977 3.459 2.075-.346-2.594 4.67-3.862 4.38-.115 6.919 2.478 3.805 1.441 2.536-1.499 4.44-.057 4.208 1.844.461-1.095 4.036.173.115-1.672-5.42-2.478 2.018-1.73-.864-.922 2.306-.922-2.94-2.421.807-1.21 9.8-1.211.98-.865 6.284-1.325 1.787-1.442 5.246.75 2.537 3.631 2.479-.864 4.093 1.21.634 1.902Zm91.03 12.105 2.306-.691 3.286-.461 3.113.518 3.805 1.672 2.825 1.845h2.651l3.921.576 2.075-.922 3.401-.577 2.537-2.536 1.96.403 2.248 1.211 3.229-.346.346 2.71.173 3.63 1.614 1.442 1.326-.461 3.171.576 1.441-1.326 2.998 1.153 4.15 2.537.462 1.268-2.537-.404-3.92.461-1.441 1.038-.75 2.421-3.689 1.383-1.845 1.96-3.402-.749-1.844-.346-.289 2.363 1.672 1.384 1.096 1.21-1.384 1.268-1.153 1.96-2.825 1.269-4.381.115-4.151 1.268-2.537 1.96-1.902-1.095h-3.574l-5.42-2.248-3.228-.519-3.69.519-6.514-.865-3.228.115-2.71-2.19-2.882-3.344-1.961-.403-4.612-2.306-4.15-.461-3.748-.634-1.729-1.614-.807-4.208-3.344-2.94-4.727-1.326-3.286-1.902-1.903-2.536 2.71-.634 3.862-3.055 3.402-1.672 3.055 1.095 2.998.058 2.767 1.672 2.883.115 4.612.922 1.383-2.536-2.306-2.075.75-3.69 4.035 1.442 2.767.46 3.863.923 2.075 2.652 4.901 1.498Z"
    fill="#fff"
  />
  <path
    d="m321.456 118.226-.807-.634-1.095-1.903 1.441-.057-2.248-4.323-2.71-3.113 1.672-1.268 3.978.634-.346-3.574-1.614-3.92.173-1.326-.75-3.285-3.977 1.095-1.499 1.383h-4.382l-3.459-3.343-5.188-2.594-5.765-1.153-3.575-3.458-2.594-2.19-2.191-1.557-4.439-3.574-3.459-1.268-4.957-1.095-3.575.115-2.94.634-.98 1.787 2.133.807 1.441 1.96-.749 1.153.115 3.746 1.096 1.614-2.537 2.249-4.266-1.384-3.229.346-2.248-1.21-1.96-.404-2.537 2.536-3.401.577-2.075.922-3.921-.576h-2.651l-2.825-1.845-3.805-1.672-3.113-.518-3.286.46-2.306.692-4.901-1.498-2.075-2.652-3.863-.922-2.767-.461-4.035-1.441-.75 3.689 2.306 2.075-1.383 2.536-4.612-.922-2.883-.115-2.767-1.672-2.998-.058-3.055-1.095-3.402 1.672-3.862 3.055-2.71.634-.98.288-2.536-2.19-3.459.519-1.903-1.557-2.306-.692-2.363-2.075-1.903-.634-3.574.922-4.843-2.017-.634 1.845-10.55-8.993-4.843-2.709.462-1.153-5.304 3.344-2.537.172-.634-1.902-4.093-1.21-2.479.864-2.537-3.631-5.246-.75-1.787 1.442-6.284 1.325-.98.865-9.8 1.21-.807 1.211 2.94 2.421-2.306.922.865.922-2.018 1.73 5.419 2.478-.115 1.672-4.036-.173-.461 1.095-4.209-1.844-4.439.058-2.536 1.498-3.805-1.44-6.918-2.48-4.382.116-4.67 3.862.347 2.594-3.46-2.075-1.267 3.977 1.037.692-.98 2.767 3.056 2.42 2.075-.115 2.479 2.421.115 1.845 1.614.634-.807 2.133-2.652.576-2.075 3.747 3.459 3.516.23 2.421 4.21 4.323-1.442 1.499-.346.922-1.384-.288-2.479-2.19-.864-.116-2.076-.864-1.21-1.499-2.94-.749-1.672.576-.692-.692-4.382-1.786-4.439-.577-2.652-.634-.23.461-4.382-3.113-3.574-1.383-2.94-2.133 2.075-.576 1.845-2.998-1.902-1.441 3.978-1.498-.231-.807-2.479.576-.23-1.556 1.268-1.038 2.767-.23.173-1.211-1.038-2.017.75-1.845-.231-1.095-4.439-1.153-1.672.057-2.075-1.671-2.076.576-3.862-1.268-.058-.692-1.326-1.556-2.248-.173-.461-1.095.519-.75-2.191-2.017-2.825.346-.865-.173-.576.807-1.038-.115-1.153-2.306-.865-1.153.461-.346 2.249.116.922-.75-.98-.922-1.96-.634v-.634l-1.21-.634-2.191-2.306.403-.922-.634-1.672-2.767-.807-1.384.403-.519-.864-3.055-.865-1.21-2.075-.577-1.672-1.441-.749.922-1.095-1.384-3.228 1.5-1.96-.52-.576L8.13 54.99l-3.113-1.614 4.612-4.265 1.96-1.96.519-1.672-4.267-2.248.52-2.19-2.826-2.421.98-2.767-3.747-3.632 1.672-2.42-4.208-2.133L0 25.479l1.845-.289 3.69-1.21 2.132-1.096 4.44 1.845 6.745.75 10.204 3.573 2.363 1.499.865 2.133-2.133 1.671-3.747.865-11.646-2.421-1.671.403 4.67 2.364.576 1.498 1.095 3.344 3.517.98 2.19.864-.115-1.614-1.96-1.383 1.21-1.268 6.688 2.075 1.845-.807-2.48-2.421 4.67-3.113 2.364.173 2.652 1.095.634-2.19-2.71-1.902.462-1.903-2.479-1.96 7.09 1.038 2.076 1.73-2.94.403.692 1.787 2.364 1.095 3.459-.692-.231-2.017 4.44-1.556 7.148-2.652 1.844.115-1.44 1.902 3.112.346 1.211-1.095 4.439-.058 2.882-1.325 3.69 1.902 1.614-2.075-3.459-1.787.692-1.038 7.495.923 3.805.98 10.722 3.573.635-1.614-3.402-1.671-.461-.635-3.055-.345-.116-1.441-2.71-2.421-.633-.98 2.478-2.71-.345-2.766 1.268-.577 6.572.807 1.672 1.672-.519 2.42 2.133.98 2.191 2.134 2.19 4.265 3.863 1.902.288 2.133-2.018 4.496 3.056.461.288-1.153 2.191-.806-.288-1.557 1.095-1.556-2.537-1.787-.23-2.075-2.767-.23-1.672-1.73-.231-3.113-4.727-2.479 2.709-2.017-2.133-2.133 1.096-.057 2.421 1.614 1.211 2.94 2.882.576-2.652-2.19 2.94-1.211 4.67-.173 5.534 1.73-3.977-2.48-2.825-3.17 3.401-.576 5.477.115 4.497-.403-3.229-1.5.75-1.901 2.421-.116 2.825-1.383 5.361-.404-.115-.807 5.361-.23 2.479.634 3.113-1.499 4.036.058-.865-1.268.519-1.153L152.311 0l4.785.922-2.018.692 5.42.403 2.363 1.384 1.096-.692 6.283.058 6.688 1.383 3.171 1.038 1.441 1.499-1.384.864-3.805 1.614-.634.865 3.229.403 4.15.75 1.384-.577 3.344 1.902.115-.749 2.998-.461 7.84.461 2.191 1.384 10.031.46-2.767-2.247 5.477.518 3.516-.057 5.708 1.556 3.459 1.902.23 1.269 5.823 2.42 5.188 1.211-1.729-3.17 5.419 1.326 2.882-.808 5.65.923.577-.807 4.381.403-5.419-2.824 1.211-1.268 23.29 1.96 4.554 1.786 9.397 2.306 8.533-.576 5.361.519 3.805 1.268 2.94 2.248 4.209.864 2.248-.634 4.035-.057 5.362.576 3.978-.346 8.244 2.767 1.441-.98-4.9-1.96-1.038-1.383 8.82.864 4.612-.172 9.109 1.44 5.477 1.384 19.14 12.74-1.153 1.44-3.575-.23 4.728 1.729 5.246 2.71 2.421.864 2.191 1.383.576.865-5.765-.692-3.805 2.479-1.729.403-.922 2.364-1.153 2.075.98 1.556-6.63-2.363-3.517 2.651-2.709-1.268-.807 1.499-4.036-.519 1.787 2.248.634 3.343 1.672 1.384 3.92.75 5.247 5.014-2.364.173 1.96 2.882 2.71 1.499-2.883 1.787 3.113 4.035-3.286.865 2.594 3.574-.98 3.343-3.286-2.479-6.053-5.13-9.339-7.84-3.748-4.784.058-2.075-1.614-1.614 3.286-.75-.115-4.323.403-3.458 1.441-2.71-3.804-4.726-2.71.288 1.845 2.767-2.076 3.69-7.091-4.151-5.246 1.153v5.649l4.439 2.075-4.9.922-3.69.346-2.478-2.479-4.612-.518-1.442 1.671-8.705-.576-7.61.98-2.017 6.744-2.883 8.185 4.727.461 3.286 2.19 3.344.75.231-1.73 3.228.231 7.379 3.862 2.71 2.998.807 3.574 3.171 4.265 3.055 5.707-.576 5.246.749 2.478-1.153 4.266-1.211 4.208-.518 2.132-2.652 2.133-1.787.058-2.998-1.787-2.364 2.709.288 1.211Z"
    fill="#fff"
  />
</svg>