<svg width="126" height="108" fill="none" xmlns="http://www.w3.org/2000/svg">
  <path
    d="m40.182 18.734.346 1.153-.404 1.787.52 1.729-.52 1.384.231 1.268-6.745-.058-.461 11.817 2.075 2.997 2.076 2.306-5.996 1.499-7.783-.52-2.19-1.728-13.087.115-.461.288L5.88 41.1l-2.075-.115-1.96.634-1.557.692L0 40.004l.519-3.285 1.153-3.401.173-1.557 1.095-3.343.807-1.499L5.65 24.5l1.095-1.672.346-2.71-.173-2.132-.922-1.326-.865-2.248-.75-2.19.173-.808.98-1.44-.922-3.575L3.92 3.92 2.306 1.556l.346-.691 1.326-.52.98.059L6.11 0l9.628.058.749 2.709.922 2.248.75 1.21 1.21 1.903 2.191-.289 1.038-.518 1.787.518.519-.922.864-2.133 2.018-.173.173-.634h1.672l-.288 1.326 3.92-.058.058 2.364.634 1.383-.519 2.248.23 2.306 1.038 1.384-.23 4.38.807-.345 1.383.115 2.018-.577 1.499.23Zm3.69 25.19 1.095 2.94.634.691.922 2.133 3.517 4.035 1.326.404-.057 1.325.864 2.364 2.48.576 1.96 1.672-4.67 2.71-2.998 2.766-1.153 2.479-1.038 1.383-1.73.288-.691 1.787-.346 1.153-2.076.807-2.594-.173-1.441-1.037-1.326-.404-1.614.807-.865 1.787-1.556 1.095-1.615 1.672-2.306.403-.634-1.325.346-2.249-1.73-3.516-.806-.576.346-10.78 3.17-.115.461-13.2 2.422-.115 5.015-1.326 1.153 1.556 2.133-1.44h.98l1.845-.865.577.288Zm6.63 47.382-1.153.404-2.133-2.882 1.844-2.306 1.787-1.441 1.557-.807 1.268 1.153.98 1.153-1.095 1.787-.634 1.21-1.787.577-.634 1.152Zm74.253-62.83.23 4.438.75 1.73-.404 1.786-.692 1.038-.922-2.133-.692 1.095.461 2.71-.403 1.614-.98.806-.404 3.17-1.556 4.324-1.961 5.073-2.479 7.032-1.671 5.13-1.788 4.324-2.651.864-2.941 1.557-1.729-.923-2.421-1.326-.692-1.96V65.54l-.865-2.94-.115-2.709.749-2.652 1.499-.634.115-1.21 1.672-2.825.461-2.363-.634-1.73-.461-2.363-.058-3.4 1.269-2.076.576-2.363 1.614-.115 1.845-.75 1.269-.691 1.383-.058 1.96-2.075 2.825-2.306 1.038-1.845-.346-1.613 1.384.46 1.902-2.536.173-2.248 1.153-1.671 1.038 1.614.807 1.556.692 2.479ZM66.413 77.242h-2.364l-.173-1.672-.346-1.672-.23-1.325.807-4.093-.634-2.652-1.268-5.188 3.574-4.208.98-2.651.461-.346.519-2.19-.461-1.096.23-2.767.75-2.536.23-4.726-1.614-1.153-1.556-.289-.635-.922-1.498-.75-2.71.058-.115-1.383-.23-2.652 9.915-3.055 1.845 1.787.864-.346 1.269.923.115 1.498-.75 1.73.116 2.594 2.018 2.305 1.095-2.594 1.441-.749-.057-4.784-1.269-2.652-1.095-1.21h-.23l-.347-4.208.865-3.517 1.269-.115 3.862 1.038.865-.461 2.248-.116 1.21-1.095 1.96.058 3.575-1.441 2.652-2.133.519 1.614-.288 3.689.288 3.286-.115 5.764.46 1.787-1.095 2.652-1.383 2.593-2.133 2.306-3.056 1.383-3.747 1.787-3.805 3.978-1.268.692-2.421 2.651-1.326.807-.462 2.652 1.384 2.824.519 2.133v1.153l.576-.23-.288 3.63-.634 1.73.692.634-.577 1.556-1.383 1.326-2.71 1.21-3.978 2.018-1.44 1.384.172 1.556.75.23-.404 1.96Z"
    fill="#fff"
  />
  <path
    d="M75.406 28.476h.23l1.096 1.21L78 32.338l.058 4.784-1.441.75-1.096 2.593-2.017-2.305-.116-2.594.75-1.73-.116-1.498-1.268-.923-.865.346-1.844-1.787-1.672-.922 1.153-3.459 1.038-1.268-.52-3.112.75-2.998.577-.98-.75-3.112-1.499-1.672 3.171.692.576.98-.057.46 1.038 2.364.115 4.439-1.038 2.075.923 2.709-.116 1.614.692 1.095-.058 1.383.52.808.576-.923 1.095 1.441.115-.46-.576-1.96-.634-.174-.058-.518ZM37.3 43.117l2.652-.807 2.075.173 1.268.864v.289l-1.845.864h-.98l-2.133 1.441-1.153-1.556-5.015 1.326-2.421.115-.462 13.2-3.17.116-.346 10.779-.634 13.661-2.883 1.903-1.672.288-1.96-.692-1.441-.288-.461-1.557-1.153-1.037-1.615 1.844-2.248-2.824-1.153-2.652-.576-3.631-.692-2.652-.923-5.706.058-4.439-.346-2.017-1.21-1.557-1.615-3.055-1.614-4.438-.634-2.306L.46 45.134.288 42.31l1.557-.692 1.96-.634 2.075.115 1.903 1.672.461-.288 13.087-.115 2.19 1.729 7.783.519 5.996-1.5Zm26.23 30.781.346 1.672.173 1.672-.807 1.614-1.845.403-1.787-2.017.058-1.269.98-1.383.346-1.095.98-.23 1.556.633Z"
    fill="#fff"
  />
  <path
    d="m63.76 9.972.174.116 1.268.634 2.075.634 1.845 1.095 1.5 1.671.749 3.113-.577.98-.75 2.998.52 3.112-1.038 1.268-1.153 3.459 1.672.922-9.916 3.055.23 2.652-2.479.519-1.902 1.44-.461 1.269-1.153.346-2.94 2.997-1.845 2.421-1.096.058-1.037-.404-3.574-.403-.577-.288v-.289l-1.268-.864-2.076-.173-2.652.807-2.075-2.306-2.075-2.997.46-11.817 6.746.058-.23-1.268.518-1.384-.519-1.73.404-1.786-.346-1.153 1.095.058.173 1.152 1.557-.057 2.018.346 1.095 1.671 2.537.52 2.017-1.154.692 1.902 2.479.52 1.153 1.613 1.268 2.018h2.48l-.116-3.978-.922.692-2.249-1.441-.865-.692.52-3.689.633-4.38-.691-1.615.98-2.363.864-.461 4.44-.634.518.173-.173.807 1.096.288.691.75.577-.174-.288-.634Z"
    fill="#fff"
  />
  <path
    d="m62.204 60.64-1.672-.403-1.095.461-1.556-.634h-1.269l-1.96-1.672-2.479-.576-.865-2.364.058-1.325-1.326-.404-3.517-4.035-.922-2.133-.634-.691-1.095-2.94 3.574.403 1.038.404 1.095-.058 1.845-2.42 2.94-2.998 1.153-.346.461-1.268 1.903-1.441 2.478-.519.116 1.383 2.71-.057 1.498.75.634.921 1.557.289 1.614 1.153-.23 4.726-.75 2.537-.23 2.766.46 1.096-.518 2.19-.461.346-.98 2.651-3.575 4.208Z"
    fill="#fff"
  />
  <path
    d="m62.205 60.64 1.268 5.188.634 2.652-.807 4.093.23 1.325-1.556-.634-.98.23-.346 1.096-.98 1.383-.058 1.269 1.787 2.017 1.845-.403.807-1.614h2.364l-.98 2.709-.577 3.055-.98 1.671-2.306 1.903-.634.519L59.437 89 58.4 90.903l-2.018 2.651-3.863 3.805-2.363 2.19-2.48 1.73-3.4 1.383-1.557.231-.52 1.037-1.844-.576-1.556.692-3.286-.692-1.903.461-1.268-.231-3.344 1.499-2.652.576-2.018 1.384-1.383.115-1.21-1.326-1.038-.057-1.269-1.672-.173.519-.346-.98.173-2.19-.864-2.48 1.037-.69.058-2.825-1.903-3.459-1.383-3.113v-.057l-2.076-4.785 1.615-1.844 1.153 1.037.46 1.557 1.442.288 1.96.692 1.672-.288 2.883-1.903.634-13.661.807.576 1.73 3.516-.347 2.249.634 1.325 2.306-.403 1.615-1.672 1.556-1.095.865-1.787 1.614-.807 1.326.404 1.441 1.037 2.595.173 2.075-.807.346-1.153.692-1.787 1.73-.288 1.037-1.383 1.153-2.479 2.998-2.767 4.67-2.71h1.268l1.556.635 1.096-.461 1.672.403ZM50.502 91.306l.634-1.152 1.787-.577.634-1.21 1.095-1.787-.98-1.153-1.268-1.153-1.557.807-1.787 1.441-1.845 2.306 2.134 2.882 1.153-.404Z"
    fill="#fff"
  />
</svg>