<svg width="428" height="196" fill="none" xmlns="http://www.w3.org/2000/svg">
  <path
    d="m267.265 116.785 1.96.518 2.71-.115-1.903 1.499-1.153.23-3.17-1.556-.346-1.21 1.441-1.096.461 1.73Zm8.302-9.223-1.384.057-3.343-1.095-2.018-1.729 1.095-.288 3.402.922 2.421 1.499-.173.634Zm-177.504 2.133-1.788.518-3.632-1.614v-1.268l-1.671-1.268.172-1.038-2.479-.634.346-1.959.865-.807 2.364.749 1.383.576 2.364.346.115 1.268.231 1.672 1.845 1.499-.115 1.96Zm195.491-7.782-2.883 3.112 2.249-1.21 1.671.807-1.383 1.21 2.191.98 1.614-.864 2.479 1.095-1.614 2.652 2.19-.635-.173 1.903.289 2.248-2.076 3.228-1.383.115-1.672-.692 1.441-2.939-.692-.462-4.208 3.113-1.73-.115 2.537-1.729-2.537-.865-3.171.23-5.534-.115-.115-1.037 2.19-1.326-.98-.922 3.113-2.191 4.728-5.707 2.421-2.017 2.883-1.21 1.21.115-.865.98-2.19 2.248ZM86.014 89.577l.865.461 2.882-.288-4.15 3.977.172 2.883h-1.095l-.404-1.614.288-1.672-.46-1.095.749-1.557 1.153-1.095Zm163.38-27.38-2.076 1.729-.98-.288-.057-.98.23-.23 1.615-.98.98.057.288.692Zm-5.592-1.845-4.151 1.845-1.729-.116v-.864l2.882-1.556 3.459.057-.461.634Zm-1.787-9.684-.519 1.441 1.556-.519.865.865 2.018 1.153 2.191.98-.808 1.556 2.018-.23 1.096 1.095-2.883 1.038-3.401-.807-.461-1.5-3.632 1.788-4.728 1.671.404-1.902-3.632.288 3.286-1.614 2.075-2.594 2.94-2.94 1.615.231Zm25.885-4.784-2.825.173.403-1.557 2.191-1.787 2.479-.403 1.326.865-.865 1.325-.519.462-2.19.922Zm-42.95-6.168-2.363 1.095-2.422-.922-2.248.288-1.96-1.383 2.883-.98 2.824-1.326 1.73.865.922.576.231.576.403 1.211Z"
    fill="#fff"
  />
  <path
    d="m255.505 121.915-1.269-2.075 1.672-4.9-.922-1.038-2.133.577-.634-.922-3.171 2.709-1.845 2.824-1.614 1.672-1.441.576-.98.173-.635.865h-5.361l-4.497.058-1.556.634-3.92 2.536v-.058l-.519-.23-1.153.519-1.096.749-1.037-.634-2.71.461-2.248.519-1.096.461-1.326 1.21 1.038.404.98-.231h.173l-.173 1.096-2.767.403-1.614.461-.98.577-1.499-.346-.923.173-1.671 1.037-2.652 1.153-1.557-.23 1.153-1.269 2.133-2.017 2.364-1.211.634-1.037.519-1.729 2.191-2.018.518-2.306.635 2.248 2.19.519 1.384-1.21-.807-2.767-.519-1.153-2.306-.692-2.191-.403h-2.248l-1.96-.461-.231-.807-.807.518-.692-.115 1.096-1.21-1.038-.462 1.095-1.383-.692-1.038.981-1.037-2.998-.519-.058-2.075-.461-.461-1.903-.115-2.363-.692-.865.461-1.038.865-1.902.576-1.787 1.441-3.113-.98-2.537.461-2.248-1.095-2.652-.576-1.903-.231-.576-.576.519-1.96h-.98l-.75 1.383h-79.442l-3.113-3.516-.922-1.556-4.035-1.499.749-3.17 2.075-2.133-2.363-1.557 1.787-2.824-1.21-2.536 1.44-1.845 2.94-1.672 1.845-2.19-2.651-2.19.807-3.978.634-2.42-.923-1.557-.46-1.384.345-1.787-3.747 1.096-4.382 1.902-.173-2.19-.288-1.5-1.614-.922-2.421-.115 20.523-18.849 14.182-11.76 3.459.75 1.902 1.499 2.133.288 3.632-1.268 4.036-.98 3.055.346 5.131-1.326 4.728-.75.115 1.269 2.594-.75 2.248-1.44 1.211.345.807 2.767 5.477-2.133-2.248 2.364 3.459-.52 1.844-.864 2.652.173 2.249 1.268 4.323 1.153 2.71.519 2.537-.173 1.671 1.614-4.9 1.556 3.69.634 6.86-.345 2.537-.577.807 1.903 4.093-1.557-1.211-1.383 2.595-1.038 2.997-.173 2.249-.288 1.21.75.865 1.671 2.883-.23 3.055 1.44 4.151-.518 3.459.057 1.383-1.96 2.595-.518 2.825 1.037-2.479 2.998 3.574-2.537 1.845.116 3.689-3.17-.922-1.903-1.672-1.268 3.171-3.401 4.727-2.19 2.594.518 1.153 1.326.231 3.459-3.344 1.498 3.863.634-2.537 3.17 5.131-2.42 1.268 2.017-2.479 2.306.75 2.133 4.208-2.248 3.748-2.767 2.709-3.401 3.171.23 3.113.462 2.075 1.556-.98 1.556-2.94 1.672.519 1.672-1.384 1.556-6.283 2.248-3.748.519-1.845-.98-1.902 1.614-4.266 2.71-1.73 1.44-4.439 2.19-3.747.231-2.94 1.384-1.672 2.19-3.286.404-5.015 2.709-5.42 3.747-2.882 2.651-2.825 3.978 3.459.576-.865 3.17-.461 2.652 4.209-.692 4.035 1.499 1.903 1.326.98 1.614 2.824.98 2.076 1.44 4.381.231 2.767.346-2.075 2.998-.98 3.516.058 3.977 2.536 3.401 2.71-1.153 3.228-3.689 1.326-5.534-.98-1.844 5.189-1.672 4.323-2.42 2.768-2.422.98-2.306-.231-2.94-1.845-2.593 5.131-3.574.577-3.055 2.248-5.188 2.191-.807 3.862.922 2.421.346 2.595-.922 1.787 1.153 2.075 1.96.116 1.268 4.439.288-1.499 2.824-1.326 4.266 2.19.576.923 2.018 4.727-1.902 4.324-3.805 2.421-1.556.634 3.055 1.499 4.323 1.153 4.15-1.96 2.19 2.767 1.96 1.672 1.96 3.978.923 1.384 1.095v2.998l1.96.46.634 1.326-1.153 3.978-2.479 1.326-2.421 1.268-5.074 1.268-4.554 2.882-4.958.634-5.822-.807h-4.209l-3.055.231-3.286 2.594-4.267 1.614-5.822 4.726-4.555 3.344 2.71-.577 6.284-4.784 7.091-2.998 4.381-.345 1.903 1.787-3.517 2.421-.346 3.862.058 2.766 3.228 1.787 4.958-.518 4.151-4.093-.577 2.652 1.442 1.325-4.266 2.364-7.149 2.19-3.344 1.441-4.151 2.652-2.133-.288.865-3.056 5.996-3.055-4.67.116-3.401.461Z"
    fill="#fff"
  />
  <path
    d="m194.108 27.496-2.71 1.383 6.053-.864 1.499 1.498 4.209-1.556 1.037.98-1.268 2.94 2.479-1.21 1.614-3.056 2.479-.461 1.73.461 1.268 1.21-1.557 2.94-1.383 2.133 2.421 1.499 2.883 1.498-1.499 1.326-4.093.288.461 1.153-1.845 1.153-3.863-.46-3.286-.865-2.94.172-5.477 1.096-6.514.46-4.554.289.173-1.499-2.364-.807-2.479.346-.346-2.478 1.903-.346 4.208-.52 3.171.174 3.574-.577-3.747-.691-5.246.23-3.286-.057v-1.096l6.745-1.268-3.632.058-3.113-.807 4.496-2.248 2.998-1.21 8.186-1.788 1.615.577Zm22.771-.865-4.035 1.96-1.326-2.075 1.21-.461 3.171-.116.98.692Zm62.608.922-.403.807-2.364-.057-2.364-.058-2.824.404-.519-.231-1.211-1.556.98-1.038 1.268-.23 4.843.345 2.594 1.614Z"
    fill="#fff"
  />
  <path
    d="m256.542 27.38.173 1.845 4.151-2.363 6.745-1.21 1.326 3.054-1.845 1.96 5.189-.865 3.055-1.21 3.921 1.499 2.133 1.44-.635 1.326 4.728-.691 1.095 1.96 4.843 1.21 1.268 1.21.519 2.94-5.246 1.441 4.439 2.076 3.401.691 1.903 2.883 3.747.23-1.903 2.248-6.283 3.747-2.306-1.384-2.191-3.112-3.402.403-1.325 1.903 1.556 1.844 2.594 1.499.577.864-.058 3.286-2.075 2.364-2.71-.923-4.958-2.594 2.076 2.825 1.614 2.017-.173 1.153-6.284-1.326-4.381-1.96-2.191-1.556 1.384-.98-2.768-1.672-2.709-1.556-.519.922-7.552.52-1.384-1.096 3.113-2.421 4.67-.058 5.361-.403-.115-1.153 1.787-1.614 5.074-3.113.23-1.44-.288-1.038-2.71-1.557-4.093-1.037 2.018-.807-1.153-1.96-1.96-.173-1.096-1.038-1.902.923-4.554.403-8.071-.692-4.266-.922-3.402-.461-1.095-1.095 3.632-1.384h-3.286l1.902-3.055 4.093-2.651 3.459-1.21 6.457-.808-3.344 1.902Zm-29.055-2.017 2.075.634 4.382-.404-.288.865-3.517 1.441 2.191 1.268-2.998 2.71-4.843 1.152-1.96-.23-.519-1.153-3.401-2.306.98-.98 4.266.346-.519-1.902 4.151-1.441Zm13.029 3.17-4.497 2.248-2.537-.115 1.038-2.651 1.499-1.442 2.421-1.268 2.998-.807 4.554.116 3.575.691-5.823 2.652-3.228.576Zm-66.759 4.151-7.783 1.498.346-1.326-3.459-1.614 2.537-1.268 4.323-2.19 4.382-1.96.23-1.787 8.071-.461 2.422.634 5.477.173 1.095.807.922 1.268-3.747.75-8.013 2.075-5.304 2.132-1.499 1.269Zm72.178-10.607-2.364 1.095-2.997-.23-1.845-.75 2.594-1.268 3.978-.807.807 1.038-.173.922Zm-5.073-5.015.115 1.326-1.614 1.441-3.344 2.19-3.978.289-1.845-.461 1.96-1.672-3.804.173 2.479-2.19 2.19.115 4.439-.98 2.825.173.577-.404Zm-22.714 1.499-.404.98 2.537-.461 2.075.115-1.326 1.441-2.94 1.326-8.013.461-7.091 1.268-3.459.058.864-.922 6.169-1.326-10.319.346-2.422-.52 6.745-2.766 3.113-.807 4.785.98 1.672 1.672 3.517.23.403-2.709 3.344-1.038 1.787.289-1.037 1.383Zm32.111-2.536 1.326.922h4.266l.807.922-1.614 1.038 1.787.634.692.692 2.824.115 2.941.23 4.093-.576 4.669-.288 3.344.23 1.326 1.096-.576 1.152-2.076.808-3.862.634-2.479-.404-6.803.461-4.612.058-3.228-.346-4.958-.922.922-1.614 1.211-1.384-.807-1.268-4.036-.346-1.499-.864 2.191-1.153 4.151.173Zm-43.641-1.499-3.344 2.133-3.056.98-2.19.115-5.708 1.21-4.093.462-2.075-.634 6.745-2.133 7.033-1.787 3.171.058 3.517-.404Zm46.811.346-1.037.058-3.805-.173.403-.75 4.151.058.922.461-.634.346Zm-33.898-.519-5.073.807-1.903-.865 2.941-.864 3.459-.288 2.363.403-1.787.807Zm4.497-2.421-3.286.519h-3.459l.576-.404 3.286-.749.981.115 1.902.52Zm26.98 1.441-3.805.577-.922-.634.346-.98 1.268-1.096 2.537.116.98.173 1.326.922-1.73.922Zm-7.956-.692-.634 1.096-3.055-.288-2.306-.865-4.497-.116 3.055-.749-1.614-.634 1.269-1.037 3.516.345 4.324.98-.058 1.268Zm31.189-3.516 1.557.865-3.748.75-6.11 2.017-3.921.173-3.92-.346-.922-1.095 1.21-.923 2.479-.691h-3.805l-1.153-.865.231-1.095 2.825-1.096 2.364-.749 2.306-.173-.173-.576 4.785-.116.922 1.269 2.71.518 2.767.52-.404 1.613Z"
    fill="#fff"
  />
  <path
    d="m319.9 1.095 5.015.173 3.863.288 2.998.577-.634.576-5.65.98-5.189.461-2.306.52h4.324l-6.053 1.44-3.92.692-5.362 2.017-4.669.404-1.788.576-6.514.23 2.537.347-1.903.46.404 1.327-2.883.922-3.978.75-2.017 1.037-3.805.864-.289.635 3.748-.116-.634.692-7.322 1.672-4.9-.807-6.745.46-2.883-.345-3.92-.173 1.211-1.326 4.612-.634 1.153-1.96 1.499-.173 4.323 1.153-.98-1.73-2.825-.518 2.883-1.037 4.381-.634 1.615-.923-1.73-.98.634-1.268 5.419.058 1.269.288 4.208-.922-4.208-.289-7.264.173-2.537-.807-.461-.98-1.441-.691.634-.75 3.459-.46 2.421-.058 4.266-.346 3.92-.865 2.249.115 1.383.634 2.883-1.152 2.998-.346 3.747-.23 5.995-.116.75.23 5.938-.345 4.035.115 4.036.115Z"
    fill="#fff"
  />
  <path
    d="m400.091.23 11.472 1.73-3.862.807-7.495.115-10.665.23.807.404 7.091-.288 5.592.807 4.036-.692 1.383.807-2.594 1.384 5.304-.923 9.858-.864 5.765.46.98.98-8.532 1.673-1.269.576-6.572.461 4.67.115-2.825 1.845-2.075 1.672-.692 2.997 2.133 1.845-3.401.057-3.748.922 3.632 1.5-.057 2.42-2.422.288 2.364 2.48-5.015.23 2.306 1.152-.923 1.038-3.286.461-3.171.058 2.422 1.96-.289 1.383-4.208-1.268-1.384.807 2.883.75 2.652 1.844.346 2.479-4.266.576-1.557-1.21-2.421-1.73.288 2.075-3.113 1.614 6.168.116 3.171.173-6.86 2.709-7.034 2.478-7.321 1.038-2.652.058-2.825 1.21-4.324 3.343-5.88 2.249-1.729.172-3.517.75-3.805.807-2.767 1.96-.807 2.305-1.96 2.19-4.958 2.652.173 2.594-2.076 2.767-2.363 3.286-3.748.23-2.882-2.766-5.189-.058-1.844-1.845-.462-3.228-2.767-4.15-.403-2.133.864-2.94-2.133-2.94 1.903-2.363-1.096-1.152 4.036-3.69 4.151-1.21 1.499-1.268 1.614-2.421-3.171 1.095-1.499.461-2.363.404-2.422-.98.865-2.133 1.73-1.614 2.19-.058 4.382.865-3.056-1.96-1.556-1.038-2.537.404-1.499-.75 4.036-2.766-.75-1.153-.634-2.018-.807-3.112-2.075-1.096.807-1.21-4.67-1.672-4.439-.23-5.823.115-5.476.23-1.788-.922-2.19-1.787 6.341-.864 4.382-.116-8.417-.749-3.748-1.095 1.269-1.038 9.051-1.268 8.647-1.268 1.614-.922-4.669-.923 2.652-.98 8.474-1.671 3.113-.23.116-1.038 5.188-.634 6.342-.346h5.995l1.614.691 6.111-1.268 4.094.865 2.651.173 3.575.75-3.863-1.211.923-.98 7.321-1.268 6.688.115 2.94-.807 6.86-.173 15.162.23ZM194.396 111.539l-3.517 1.153-2.709 1.441-2.652 1.556-.289.519 3.286-.749 1.211 1.21 2.652-.864 2.825-1.211 3.113-1.21-1.787 1.902 1.441.461 1.441 1.383 2.94-.807 2.941-.288.173 1.038.864.115.692.115.865 1.441-2.71.346h-.057l-2.133-.403-2.595.692-2.133.345-2.709 2.364-1.73 1.326.231.403 3.171-2.363h.403l-2.709 2.824-1.672 2.536-1.442 2.076-.345 1.787-.462.864-.346.98.058 1.902.173.289 1.038-.058.922-.404.807-.461 1.903-1.787 1.037-2.421-.057-2.248.807-1.556 1.499-1.787 1.21-1.268 1.557-.865-.231 1.211 1.269-1.787.749-.346.98-1.384 2.191.75 1.614 1.383-.461 1.672-.923 1.672-2.19 1.441-.231.922h.577l2.479-1.556.922.345-.288 2.133-.404 1.499-2.133 2.017-1.153 1.269-1.556 1.383 1.556.749 1.441.231 2.306-.519 2.133-.98 1.73-.519 2.652-1.037 3.344-2.191.057-.345.173-1.096 1.557-.461 2.248.173 2.306.288 2.652-1.21.346-1.441-.115-.519 3.92-2.536 1.556-.634 4.497-.058h5.361l.635-.865.98-.173 1.441-.576 1.614-1.672 1.845-2.824 3.171-2.709.634.922 2.133-.577.922 1.038-1.672 4.9 1.269 2.075.115 1.21-3.69 1.73-3.459 1.268-3.459 1.095-2.306 2.19-.749.807-.692 1.96.404 1.902 1.21.116.116-1.326.634.807-.577 1.038-2.19.576-1.442-.058-2.421.634-1.326.173-1.787.173-2.883 1.095 4.67-.691.634.691-4.554 1.096h-1.903l.231-.461-1.211 1.037.808.173-1.442 2.652-3.055 2.824.057-.98-.634-.173-.691-.922v2.017l.576.635-.346 1.383-1.383 1.441-2.595 2.94-.23-.115 1.672-2.537-1.153-1.383.576-3.113-1.095 1.614v2.363l-1.845-.576 1.729 1.153-.864 3.516.807.288v1.269l-.577 3.689-2.652 2.709-3.516 1.095-2.537 2.191-1.614.23-1.96 1.384-.75 1.21-3.978 2.421-2.19 1.787-2.018 2.19-1.095 2.594v2.594l.346 3.171.864 2.594-.288 1.614.75 4.265-.577 2.536-.346 1.441-1.153 2.249-1.038.461-1.498-.461-.231-1.614-1.038-.865-1.153-3.17-.922-2.825-.231-1.441 1.153-2.479-.461-2.017-1.787-3.113-1.095-.576-3.517 1.729-.519-.231-1.153-1.729-1.729-.922-3.69.519-2.652-.462-2.479.289-1.441.576.346.98-.404 1.499.461.749-.691.461-1.038-.519-1.326.692-2.248-.115-1.903-1.96-2.825.461-2.075-.864-2.018.288-2.882.864-3.517 2.71-3.517 1.614-2.133 1.729-1.095 1.672-.577 2.593-.23 1.73.346 1.268-1.269.115-2.075-.807-2.248-1.153-.519-1.729-.115-2.594-1.384-2.075-.519-2.19-.922-2.537-1.845-1.498-2.594.115-2.768 2.882-2.306-1.095-1.326-1.095-.23-2.076-.461-1.902-1.384-1.614-1.211-1.21-.749-1.326h-5.419l-.461 1.556h-8.705l-6.284-2.594-4.036-1.787.519-.749-4.093.404-3.632.288.173-1.845-1.21-2.133-1.27-.461.059-1.037-1.672-.231-.692-.98-2.767-.346-.52-.634.462-2.017-1.441-3.689-.288-5.131.518-.864-.749-1.211-.865-3.113 1.038-2.997-.519-2.017 2.248-3.056 1.615-3.112.634-2.825 3.17-3.458 2.306-3.286 2.306-3.286 2.48-4.899 1.037-3.055.23-1.672.808-.749 3.344 1.268-.577 3.401 1.268-.98 1.442-2.94.922-2.94h79.038l.75-1.383h.98l-.519 1.96.576.576 1.903.231 2.652.576 2.248 1.095 2.537-.461 3.113.98ZM41.911 79.317l-4.035 1.326-.461-.923 1.326-1.614 3.69-1.21 2.017-.52 1.499.231v1.096l-4.036 1.614Zm-22.483-9.569-2.248.519-.98-.634-.462-.923 3.286-.576 1.73.346-1.326 1.268Zm.692-12.912.691.576 2.018-.288.923.865 1.902.403-.692.404-2.825.691-.98-.749-.173-.576-2.479.173-.172-.289 1.787-1.21Z"
    fill="#fff"
  />
  <path
    d="m119.739 37.814-14.182 11.759-20.523 18.85 2.421.114 1.614.923.288 1.499.174 2.19 4.38-1.902 3.748-1.096-.346 1.787.461 1.384.923 1.556-.634 2.421-.808 3.977 2.653 2.191-1.845 2.19-2.94 1.672-.346-1.268-1.442-1.153 1.903-2.997-.923-2.825 1.557-3.228-2.364-.23-4.093-.058-2.19-1.038-1.903-3.516-1.903-.634-3.285-1.21-3.92.288-3.46-1.557-1.556-1.44-3.632.691-2.018 2.363-1.672.23-3.805.693-3.574 1.153-3.69.749 1.845-2.018 4.843-3.343 3.92-1.037.23-.808-5.419 1.845-4.266 2.248-6.456 2.421.115 1.672-5.189 2.42-4.439 1.442-3.804 1.095-2.306 1.499-6.111 1.787-2.595 1.614-4.727 1.498-1.556-.23-3.575.922-4.035 1.21-3.517 1.154L0 88.77l.23-.634 4.728-1.614 3.805-1.095 4.958-1.902 3.747-.346 2.883-1.441 5.995-2.076 1.326-.691 3.286-1.21 3.344-2.595 3.574-2.017-4.208 1.037-.173-.634-2.825 1.268.23-1.729-2.075 1.21.922-1.67-4.208 1.325h-1.614l2.133-2.018 1.902-1.268-.23-1.21-4.151.691-.346-1.614-.75-.807 2.306-1.902-.23-1.44 3.401-1.903 4.44-1.902 3.055-1.672 2.363-.23 1.038.518 4.093-1.614 1.442.288 3.228-1.037 1.441-1.499-.634-.576 3.459-1.268-1.614.057-3.575.692-1.671.75-1.038-.75-3.978.404-2.652-.807.692-1.326-.577-1.845 5.304-1.383 7.61-1.557h2.018l-2.48 1.614 5.305-.115.691-2.017L54.594 46l.462-1.615-.404-1.326-1.902-.98 3.747-1.671 4.324-.116 5.073-1.383 2.767-1.499 4.555-1.498 2.767-.346 6.456-1.384 1.788.23 5.995-1.613 2.537.634-.288 1.383 1.902-.576 3.632.173-1.095.692 2.825.518 2.824-.288 3.575.922 4.15.346 1.269.346 3.805-.461 2.363.922 2.018.404Z"
    fill="#fff"
  />
</svg>