<svg
  width="45"
  height="78"
  viewBox="0 0 45 78"
  fill="none"
  xmlns="http://www.w3.org/2000/svg"
>
  <path
    d="M22.32 16.64C26.915 16.64 30.64 12.915 30.64 8.32C30.64 3.72499 26.915 0 22.32 0C17.725 0 14 3.72499 14 8.32C14 12.915 17.725 16.64 22.32 16.64Z"
    fill="white"
  />
  <path
    d="M44.94 42.713L39.39 22.001C39.387 21.985 39.381 21.969 39.377 21.953L39.279 21.588L39.265 21.592C38.759 20.013 37.297 18.863 35.55 18.863C35.536 18.863 35.524 18.867 35.51 18.867V18.795H9.39V18.863C7.643 18.863 6.181 20.014 5.675 21.592L5.661 21.588L5.563 21.952C5.559 21.969 5.553 21.985 5.55 22.002L0 42.713L0.0519981 42.727C0.0269981 42.898 0 43.069 0 43.247C0 44.1848 0.372539 45.0842 1.03567 45.7473C1.6988 46.4105 2.59819 46.783 3.536 46.783C4.24536 46.7823 4.93804 46.5678 5.52367 46.1675C6.1093 45.7672 6.5607 45.1997 6.819 44.539L6.844 44.546L10.915 29.353V29.41H10.947C11.058 28.91 11.483 28.528 12.017 28.528C12.551 28.528 12.976 28.91 13.087 29.41H13.12V29.574C13.122 29.599 13.135 29.621 13.135 29.646C13.135 29.671 13.122 29.693 13.12 29.718V29.873L6.602 54.199C6.49528 54.4175 6.43178 54.6545 6.415 54.897L6.401 54.948L6.409 54.95C6.408 54.978 6.401 55.004 6.401 55.032C6.401 56.08 7.251 56.929 8.299 56.929H13.119V73.009C13.119 74.094 13.55 75.1346 14.3172 75.9018C15.0844 76.669 16.125 77.1 17.21 77.1C18.295 77.1 19.3356 76.669 20.1028 75.9018C20.87 75.1346 21.301 74.094 21.301 73.009V56.929H23.627V73.009C23.627 74.094 24.058 75.1346 24.8252 75.9018C25.5924 76.669 26.633 77.1 27.718 77.1C28.803 77.1 29.8436 76.669 30.6108 75.9018C31.378 75.1346 31.809 74.094 31.809 73.009V56.929H36.644C36.8932 56.9291 37.14 56.8802 37.3703 56.7849C37.6005 56.6896 37.8098 56.5499 37.986 56.3737C38.1623 56.1976 38.3021 55.9884 38.3975 55.7582C38.4929 55.528 38.542 55.2812 38.542 55.032C38.542 55.004 38.535 54.977 38.534 54.95L38.542 54.948L38.528 54.897C38.5112 54.6545 38.4477 54.4175 38.341 54.199L31.842 29.946L31.863 29.94C31.836 29.844 31.803 29.749 31.803 29.644C31.803 29.028 32.303 28.526 32.921 28.526C33.446 28.526 33.867 28.897 33.986 29.386L34.029 29.375L38.094 44.544L38.118 44.537C38.4172 45.3047 38.9755 45.9435 39.6962 46.3428C40.4169 46.7422 41.2546 46.8768 42.0642 46.7234C42.8737 46.57 43.6041 46.1383 44.1287 45.503C44.6534 44.8677 44.9394 44.0689 44.937 43.245C44.937 43.067 44.91 42.896 44.885 42.725L44.94 42.713V42.713Z"
    fill="white"
  />
</svg>