<svg
  width="38"
  height="77"
  viewBox="0 0 38 77"
  fill="none"
  xmlns="http://www.w3.org/2000/svg"
>
  <path
    d="M17.87 16.544C22.4385 16.544 26.142 12.8405 26.142 8.272C26.142 3.7035 22.4385 0 17.87 0C13.3015 0 9.59802 3.7035 9.59802 8.272C9.59802 12.8405 13.3015 16.544 17.87 16.544Z"
    fill="white"
  />
  <path
    d="M33.533 18.768V18.728H3.897V18.755C2.86899 18.7552 1.88276 19.1619 1.15332 19.8863C0.423878 20.6106 0.0103898 21.594 0.00299978 22.622H0V46.061H0.039C0.039 46.5176 0.128935 46.9697 0.303671 47.3916C0.478406 47.8134 0.73452 48.1967 1.05739 48.5196C1.38026 48.8425 1.76356 49.0986 2.18541 49.2733C2.60726 49.4481 3.05939 49.538 3.516 49.538C3.97261 49.538 4.42474 49.4481 4.84659 49.2733C5.26844 49.0986 5.65174 48.8425 5.97461 48.5196C6.29748 48.1967 6.55359 47.8134 6.72833 47.3916C6.90306 46.9697 6.993 46.5176 6.993 46.061H7.001V29.699H7.01C7.02034 29.4137 7.1408 29.1435 7.34608 28.9451C7.55137 28.7467 7.82552 28.6356 8.111 28.635C8.709 28.635 9.189 29.108 9.214 29.699H9.223V72.604C9.22366 73.6829 9.65289 74.7173 10.4163 75.4798C11.1796 76.2422 12.2146 76.6702 13.2935 76.6695C14.3724 76.6688 15.4068 76.2396 16.1693 75.4762C16.9317 74.7129 17.3597 73.6779 17.359 72.599V50.995H17.389C17.3845 50.8442 17.4103 50.6941 17.4649 50.5535C17.5195 50.4129 17.6018 50.2847 17.7068 50.1765C17.8119 50.0683 17.9376 49.9822 18.0765 49.9235C18.2154 49.8647 18.3647 49.8344 18.5155 49.8344C18.6663 49.8344 18.8156 49.8647 18.9545 49.9235C19.0934 49.9822 19.2191 50.0683 19.3242 50.1765C19.4292 50.2847 19.5115 50.4129 19.5661 50.5535C19.6207 50.6941 19.6465 50.8442 19.642 50.995H19.671V72.599C19.6998 73.6589 20.1411 74.6657 20.9009 75.4052C21.6608 76.1447 22.6792 76.5585 23.7395 76.5585C24.7998 76.5585 25.8182 76.1447 26.5781 75.4052C27.3379 74.6657 27.7792 73.6589 27.808 72.599V29.699C27.808 29.4043 27.9251 29.1218 28.1334 28.9134C28.3418 28.705 28.6243 28.588 28.919 28.588C29.2137 28.588 29.4962 28.705 29.7046 28.9134C29.913 29.1218 30.03 29.4043 30.03 29.699V46.062H30.068C30.068 46.9844 30.4344 47.8691 31.0867 48.5213C31.7389 49.1736 32.6236 49.54 33.546 49.54C34.4684 49.54 35.3531 49.1736 36.0053 48.5213C36.6576 47.8691 37.024 46.9844 37.024 46.062H37.031V22.623C37.033 20.608 35.496 18.969 33.533 18.768Z"
    fill="white"
  />
</svg>